<svg xmlns="http://www.w3.org/2000/svg" viewBox="0 0 720 540"><defs><style>.cls-1{fill:#f9f9f9;}.cls-2,.cls-3{fill:#878787;stroke:#f9f9f9;stroke-linecap:round;stroke-linejoin:round;stroke-width:0.25px;}.cls-2{fill-rule:evenodd;}</style></defs><title>IR-EPS-01-0002</title><g id="Background"><rect class="cls-1" width="720" height="540"/></g><g id="Iran"><polygon id="Zanjan" class="cls-2" points="262.93 159.24 266 161.21 268.27 163.6 269.13 165 270.34 169.19 268.68 169.77 266.46 171.25 265.63 173.17 266.05 174.78 267.15 176.15 267.81 177.8 268.48 178.83 269.5 179.34 270.11 179.38 270.51 179.59 270.89 180.01 271.43 180.31 271.8 181 272.14 182.25 272.78 183.32 273.25 184.36 273.57 187.04 273.1 187.73 269.38 188.74 267.32 189.9 266.07 191.32 265.96 192.32 266 192.6 264.13 191.74 262.8 191.65 260.95 192.16 259.81 193 259.07 193.15 258.2 193.18 257.56 193.32 257.13 193.61 257.19 194.39 259.78 196.72 261.3 198.96 261.31 199.4 260.56 200.42 259.02 200.97 257.31 200.54 255.52 199.57 251.14 199.42 250.22 198.85 249.53 197.59 249.35 197.06 248.95 196.37 248.58 196.02 242.96 192.6 242.68 191.93 243.02 191.02 243.82 190.18 244.27 188.33 244.27 185.76 243.89 184.33 243.53 184.29 243.45 184.26 243.43 184.07 243.49 183.9 243.57 183.74 243.6 183.57 243.48 182.96 243.52 182.73 243.73 182.53 243.54 182.25 243.31 181.75 243.11 181.19 243.03 180.7 242.89 180.43 242.25 179.72 242.18 179.6 231.9 177.56 231.31 176.96 228.49 170.63 228.37 169.8 228.36 168.57 228.75 167.77 231.84 164.62 232.7 163.19 233.31 162.75 234.65 162.1 235.77 160.89 236.47 160.47 237.19 160.17 243.61 159.42 245.54 159.72 246.87 159.5 251.75 160.01 253.27 159.41 253.98 158.84 254.22 158.7 254.81 158.54 255.65 158.84 257.17 160.47 257.8 160.34 258.08 159.88 258.08 159.45 258.33 159.01 258.72 158.85 259.3 159.18 260.04 159.28 260.84 158.72 261.56 158.51 262.93 159.24"/><polygon id="Yazd" class="cls-2" points="434.7 249.33 439.91 248.11 440.78 249.23 441.59 250.79 443.11 261.1 444.44 264.14 446.17 265.13 446.66 265.51 447.98 266.11 449.71 267.19 451.36 269.78 451.9 270.17 452 272.02 451.83 272.77 451.28 273.67 450.93 274.54 451.08 275.07 451.39 275.63 451.99 276.31 452.02 277.04 452.64 278.39 453.46 279.75 453.42 281.07 452.95 282.42 452.77 283.6 452.43 284.73 449.71 288.37 448.96 290.47 446.87 293.73 445.8 296.48 445.51 296.95 423.63 287.52 421.02 287.06 420.58 287.73 419.64 288.75 415.4 291.15 413.96 292.69 403.13 298.41 402.23 300.35 401.96 307.87 401.66 309.52 398.2 311.05 394.35 311.57 392.68 311.23 390.07 311.13 378.61 313.17 376.82 315.17 375.87 316.97 375.42 318.69 375.47 319.87 376.61 322.03 377.82 325.2 378.3 327.56 378.96 328.37 379.62 328.82 379.36 336.47 379.58 337.81 379.86 338.75 379.88 339.41 379.24 339.87 377.18 340.12 376.97 340.3 376.08 340.7 371.94 338.59 368.77 336.2 368.18 334.79 367.46 329.63 366.57 328.05 363.32 324.05 359.93 317.98 355.17 305.93 352.55 302.74 349.46 299.9 344.27 297.9 343.38 294.38 343.32 292.71 343.54 292.12 343.93 289.21 344.78 285.83 344.97 284.28 344.38 276.86 344.54 276.06 345.35 275.51 346.82 275.08 348.14 274.33 349.04 273.57 350.26 272.79 352.23 272.02 353.72 271.97 360.18 273.45 381.76 266 383.92 264.77 385.04 263.4 385.82 261.91 386.49 260.1 387.42 256.02 388.51 254.66 390.54 253.57 392.13 253.4 393.3 252.58 395.04 249.55 395.58 247.81 395.35 231.17 395.35 231.11 395.71 230.95 397.58 230.6 402.81 230.72 405.05 229.56 412.38 217.19 420.72 215.01 428.83 211.16 433.96 209.83 436.23 210.43 442.18 215 442.88 216.57 442.6 218.16 440.63 220.1 432.55 225.83 431.16 228.34 428.59 236.09 428.42 240.25 429.69 247.33 430.65 248.84 434.7 249.33"/><polygon id="Tehran" class="cls-2" points="328.72 195.66 330.12 195.09 332.77 191.88 334.64 190.4 335.99 190.58 337.44 191.19 339.28 191.53 341.61 192.8 343.16 193.12 344.24 192.97 344.9 192.58 345.78 192.78 347.62 194.05 348.26 196.87 348.53 199.4 347.87 201.65 344.63 204.61 342.6 205.7 340.28 206.46 338.63 206.4 334.04 205.06 332.48 205.03 330.99 204.51 327.27 202.24 326.15 201.25 324.93 201.19 324.49 201.03 324.24 200.79 323.86 200.62 323.52 200.97 323.25 203.28 322.86 204.78 322.74 205.92 322.89 206.99 325.19 210.05 326.12 211.73 325.86 213.26 324.82 214.89 324.19 216.88 324.11 217.95 312.49 211.02 307.59 209.54 301.73 209.47 301.73 209.41 303.49 203.69 303.48 201.94 302.95 200.92 302.01 199.74 302.55 198.49 303.87 197.68 304.94 196.36 305.51 194.84 307.32 194.74 307.57 193.52 307.65 191.9 308.88 190.48 310.53 189.87 312.18 190.07 313.33 189.36 313.33 187.93 313.39 186.87 315.6 188.17 318.73 188.44 321.5 189.52 323.58 191.78 324.77 194 325.5 194.84 326.11 195.21 327.11 195.57 328.72 195.66"/><polygon id="Sistan_and_Baluchestan" data-name="Sistan and Baluchestan" class="cls-2" points="522.43 302.89 523.55 303.06 524.08 303.27 524.48 303.58 525.21 304.51 525.35 304.96 525.21 305.98 525.22 306.46 525.41 306.94 525.96 307.85 526.13 308.39 526.17 309.08 526.22 309.33 526.58 310.09 526.82 310.87 526.92 311.34 526.92 311.81 526.78 312.31 526.39 313.08 526.48 313.36 526.56 314.98 526.43 315.05 526.38 315.22 526.35 315.65 526.38 315.67 526.43 315.8 526.08 316.17 524.4 318.21 521.82 321.33 519.49 324.16 519.49 324.16 517.83 326.15 515.62 328.8 514.47 330.18 512.78 332.2 509.63 335.97 509.62 335.97 508.07 337.79 506.89 339.17 508.54 341.13 509.62 342.4 510.95 344.01 512.49 345.85 514.09 347.76 515.76 349.77 516.16 350.09 516.59 350.26 516.95 350.52 517.14 351.12 517.1 351.57 516.86 352.39 516.86 352.85 517.05 353.33 517.7 354.04 517.96 354.44 518.02 354.71 518.08 355.29 518.18 355.56 518.4 355.8 518.59 355.87 518.78 355.89 519 356.01 519.21 356.34 519.31 356.74 519.47 357.08 519.82 357.23 520.02 357.39 520.08 357.59 520.01 357.8 519.82 358 519.67 358.15 519.61 358.3 519.66 358.43 519.82 358.55 520.08 358.67 520.31 358.86 520.49 359.1 521.35 361.08 521.47 361.54 521.52 361.93 521.62 362.27 522.21 362.93 522.79 364.21 523.39 364.94 525.49 366.86 526.34 367.96 527.63 369.16 528.28 369.91 528.65 370.12 529.88 370.46 530.85 371.02 531.47 371.22 532.82 371.33 533.47 371.47 535.17 372.24 537.86 372.78 538.43 373.08 538.67 373.36 538.84 373.67 539.05 373.95 539.38 374.14 539.72 374.25 539.93 374.38 540.08 374.62 540.21 375.02 540.5 375.52 541.79 376.92 542.21 377.18 545.54 376.5 546 376.78 546.1 377.59 545.8 379.96 545.47 382.59 545.85 384.19 546.38 386.41 546.5 387.78 546.67 389.64 546.77 390.8 546.97 392.92 547.08 394.12 546.96 395.07 545.88 397.49 546.28 397.98 546.39 398.23 546.35 398.6 546.25 398.93 546.13 399.18 545.93 399.33 545.61 399.36 546.49 400.14 546.79 400.31 546.96 400.31 547.24 400.14 547.38 400.12 547.54 400.17 548.02 400.44 548.67 400.58 549.22 400.55 550.41 400.31 550.94 400.23 552.01 399.9 552.55 399.87 552.89 399.9 553.15 399.9 554.26 399.54 554.47 399.55 554.73 399.64 555.25 400.13 555.49 400.27 555.99 400.45 556.17 400.57 556.39 400.81 556.68 401.24 557.38 402.78 557.03 402.64 556.58 402.65 556.18 402.82 555.96 403.19 555.88 403.42 555.66 403.73 555.58 403.96 555.55 404.23 555.65 406.82 555.84 407.25 556.09 407.62 556.26 407.99 556.2 408.4 555.89 408.68 555.06 408.82 554.73 408.99 554.58 409.35 554.41 412.67 554.2 413.58 553.74 414.03 553.54 414.02 553.38 413.94 553.23 413.83 553.05 413.75 552.86 413.73 552.26 413.87 551.46 413.85 550.66 413.72 548.82 413.68 547.22 413.64 545.83 413.6 545.61 413.67 545.46 413.88 545.25 414.26 545.11 414.37 544.96 414.45 544.78 414.52 544.15 414.66 543.98 414.65 543.75 414.54 543.53 414.49 543.36 414.6 543.19 414.77 543.02 414.9 542.61 415.05 539.19 415.41 539 415.47 538.84 415.59 538.67 415.89 538.55 416 538.34 416.06 537.91 416.04 537.72 416.06 537.55 416.13 537.29 416.32 537.12 416.42 536.73 416.58 536.55 416.69 536.42 416.86 536.38 417.06 536.44 417.21 536.52 417.34 536.54 417.48 536.33 417.88 535.69 418.51 535.54 418.79 535.65 419.31 535.85 419.73 535.87 420.06 535.43 420.29 534.66 420.19 533.76 419.86 532.99 419.76 532.64 420.31 532.57 420.87 532.38 421.11 531.54 421.25 531.12 421.38 530.74 421.57 530.01 422.05 527.55 422.75 527.06 423.14 526.76 423.75 526.59 424.46 526.4 425.84 526.24 427.06 526.04 428.47 525.79 430.36 525.57 431.94 525.46 432.34 525.15 432.72 524.79 432.8 524.4 432.79 523.97 432.9 523.54 433.49 523.64 434.33 523.86 435.22 523.8 436 523.68 436.18 523.38 436.48 523.26 436.69 523.19 437.02 523.1 438.34 522.98 440.28 522.84 442.52 522.72 444.43 522.07 446.31 522.07 446.31 521.94 445.98 521.89 445.6 521.54 445.34 521.48 445.2 521.38 445.13 521.18 445.26 521.12 445.39 521.09 445.75 521.03 445.89 521.14 446 521.34 446.24 521.46 446.34 521.02 446.29 520.69 446.16 520.35 446.15 519.91 446.5 520.39 446.65 520.59 446.76 520.76 446.96 520.65 447.18 520.33 447.59 520.24 447.82 520.24 447.94 520.21 448.03 520.05 448.19 519.76 448.34 518.65 448.68 518.94 448.88 518.47 449.52 515.04 448.34 513.84 448.08 513.85 447.71 513.54 447.15 510.69 446.13 507.35 445.57 504.52 444.9 502.59 444.66 502.26 444.48 502.57 444.19 502.08 443.48 502.01 443.17 502.01 441.9 501.94 441.71 501.2 440.97 500.88 440.78 500.53 440.74 500.16 440.77 498.76 441.2 498.41 441.4 498.22 441.71 497.9 442.09 497.74 442.34 497.73 442.49 497.79 442.63 497.87 443.09 497.97 443.15 498.11 443.17 498.34 443.28 498.51 443.27 498.6 443.33 498.68 443.48 498.9 443.71 498.67 443.67 498.67 443.72 499.26 444.03 499.2 444.32 498.97 444.26 498.31 443.99 497.48 443.64 497.07 443.41 496.19 443.42 495.6 442.94 495.79 442.58 495.87 442.49 495.58 442.36 495.21 442.3 494.47 442.34 493.9 442.45 493.78 442.49 493.6 442.7 493.6 442.83 493.65 442.94 494.08 443.23 493.94 443.65 493.38 443.65 492.98 443.38 492.75 443.3 492.05 443.2 491.89 443.08 491.67 442.79 491.35 442.61 490.6 442.66 489.56 442.81 488.47 442.86 487.71 443.42 486.85 443.13 486 442.31 485.08 442.07 482.72 442.22 481.8 442.21 480.25 441.85 479.28 440.86 478.54 440.45 477.38 440.67 474.97 441.06 474.4 441.15 474.31 440.61 474.85 440.38 474.86 440.04 474.91 439.67 474.54 439.48 474.37 439.26 473.64 438.03 473.31 437.69 473.03 437.33 472.89 436.87 472.56 436.46 471.94 436.22 471.49 435.76 471.39 434.94 470.73 433.86 466.86 430.44 466.13 429.98 465.86 429.86 465.77 429.45 465.87 428.72 466.24 428.16 466.49 428.03 466.89 427.04 467.01 426.19 467 424.79 467.25 424.2 467.52 423.83 467.49 423.09 467.87 422.63 468.2 421.75 468.02 420.88 467.32 420.04 466.94 418.71 467.45 417.67 468.1 416.88 468.08 416.1 467.43 415.51 467.1 414.99 467.67 414 468.25 412.27 467.17 410.08 465.62 408.29 465.2 406.74 465.26 405.26 465.18 404.41 464.69 402.49 464.69 400.21 467.04 390.99 467.31 388.35 467.17 380.36 469.52 377.28 470.15 375.19 469.43 374.01 467.75 372.74 467 371.56 468.18 370.93 470.49 370.14 475.24 367.38 476.16 366.65 476.76 366 476.79 365.14 476.58 364.24 475.98 362.98 475.95 361.07 475.66 359.52 475.95 358.02 477.66 355.41 478.29 353.09 478.35 351.05 477.64 346.1 476.83 344.05 475.91 343.44 475.42 342.93 475.61 340.97 479.79 321.5 480.43 321.2 495.73 316.85 496.85 317.05 497.57 317.81 498.03 318.18 499.92 318.7 502.43 320.56 505.64 325.14 507.31 326.58 510.09 326.48 510.78 326.2 511.1 325.71 511.13 324.98 510.1 320.38 510.01 318.57 510.44 312.36 511.4 308.87 512.71 305.72 512.99 302.85 512.62 301.46 516.08 301.96 520.08 302.55 522.43 302.89"/><polygon id="Semnan" class="cls-2" points="409.92 160.5 410.73 160.36 411.72 160.77 411.51 161.36 410.31 161.72 409.79 162.14 409.66 162.51 409.8 162.72 409.93 162.99 410.03 163.67 409.92 165.4 409.54 166.92 409.47 167.43 409.85 168.24 412.26 170.96 414.58 172.95 415.73 173.34 417.67 173.67 418.68 174.06 421.79 173.53 422.19 173.42 422.84 173.44 423.67 173.94 424.17 175.94 423.62 178.31 422.8 179.88 422.5 182.64 422.88 187.38 423.54 190.43 424.09 191.84 428.93 195.8 430.27 197.34 429.96 199.09 426.41 205.21 425.54 207.22 424.92 207.71 420.61 209.34 418.3 210.72 415.67 213.13 412.38 217.19 405.05 229.56 402.81 230.72 397.58 230.6 395.71 230.95 395.35 231.11 395.35 231.17 395.16 230.93 394.66 230.5 393.54 230.13 344.87 231.59 343.81 231.42 335.12 228.56 333.73 228.34 328.15 228.7 326.15 228.37 322.21 226.22 322.88 225.25 323.78 223.14 324.33 220.97 324.39 218.94 324.11 217.95 324.19 216.88 324.82 214.89 325.86 213.26 326.12 211.73 325.19 210.05 322.89 206.99 322.74 205.92 322.86 204.78 323.25 203.28 323.52 200.97 323.86 200.62 324.24 200.79 324.49 201.03 324.93 201.19 326.15 201.25 327.27 202.24 330.99 204.51 332.48 205.03 334.04 205.06 338.63 206.4 340.28 206.46 342.6 205.7 344.63 204.61 347.87 201.65 348.53 199.4 348.26 196.87 347.62 194.05 347.91 193.92 349.98 193.69 350.95 193.42 352.24 192.68 353.3 192.31 353.96 192.68 354.98 192.54 356.54 192.03 357.99 191.26 358.87 190.47 359.35 189.79 359.6 189.16 360.08 188.46 362.17 186.6 362.97 185.67 363.3 183.63 363.75 182.1 364.47 180.69 366 179.16 367.7 178.16 369.75 177.54 373.75 177.47 375.34 177.73 376.76 177.41 379.64 176.05 380.9 174.67 384.36 171.96 387.93 169.91 389.66 169.7 396.95 170.7 397.98 170.22 398.66 168.46 399.06 165.67 400.75 161.91 404.55 156.05 405.39 155.36 408.47 159.47 409.92 160.5"/><polygon id="Qom" class="cls-2" points="324.11 217.95 324.39 218.94 324.33 220.97 323.78 223.14 322.88 225.25 322.21 226.22 315.33 228.01 313.75 227.93 309.35 228.44 307.4 229.29 306.64 230.06 306.4 230.78 305.78 235.62 306.21 236.69 306.79 237 302.08 235.71 299.98 234.55 294.72 234.06 293.37 232.94 292.43 231.77 291.93 230.54 292.02 229.53 291.7 228.8 291.11 228.09 290.5 227.73 289.69 227.8 288.95 227.46 288.05 226.65 286.94 225.36 287.14 224.07 289.04 223 289.26 222.5 288.83 221.91 288.86 220.28 290.03 219.34 291.86 219.59 293.64 219.08 294.85 218.28 297.38 217.88 299.49 217.17 299.87 216.94 300.11 215.99 300.47 212.16 301.15 210.22 301.73 209.41 301.73 209.47 307.59 209.54 312.49 211.02 324.11 217.95"/><polygon id="Qazvin" class="cls-2" points="277.76 174.84 278.8 174.79 279.42 174.9 279.87 175.21 281.75 175.58 282.76 175.4 286.59 173.32 287.02 173.17 287.47 172.93 289.16 172.56 291.93 172.83 297.37 177.42 298.5 178.03 301.8 180.56 302.04 181.24 302.06 181.75 297.21 181.23 294.89 181.42 294.3 182.31 295.35 183.75 296.1 184.4 297.54 184.83 298.49 185.64 297.84 187.82 296.87 189.86 296.62 190.79 295.92 191.46 291.79 193.48 290.67 194.56 290.42 195.54 290.59 196.32 291.1 197.48 291.55 198.2 290.94 198.11 289.72 198.18 286.06 199.78 285.12 199.84 284 200.16 282.94 200.69 279.36 201.78 278.5 202.42 277.89 203.83 274.31 203.93 273.81 203.57 270.91 202.84 270.34 202.99 267.73 202.55 266.33 201.48 266.95 200.53 266.18 199.56 264.48 198.58 262.25 198.54 261.3 198.96 259.78 196.72 257.19 194.39 257.13 193.61 257.56 193.32 258.2 193.18 259.07 193.15 259.81 193 260.95 192.16 262.8 191.65 264.13 191.74 266 192.6 265.96 192.32 266.07 191.32 267.32 189.9 269.38 188.74 273.1 187.73 273.57 187.04 273.25 184.36 272.78 183.32 272.14 182.25 271.8 181 271.43 180.31 270.89 180.01 270.51 179.59 270.11 179.38 269.5 179.34 268.48 178.83 267.81 177.8 267.15 176.15 266.05 174.78 265.63 173.17 266.46 171.25 268.68 169.77 270.34 169.19 272.27 170.12 272.31 170.56 272.56 171.36 273.72 172.83 274.96 174 277.76 174.84"/><polygon id="Mazandaran" class="cls-2" points="361.29 169.11 361.29 169.11 361.32 169.45 361.55 170.08 362.26 171.31 366.76 174.04 368.92 176.27 369.75 177.54 367.7 178.16 366 179.16 364.47 180.69 363.75 182.1 363.3 183.63 362.97 185.67 362.17 186.6 360.08 188.46 359.6 189.16 359.35 189.79 358.87 190.47 357.99 191.26 356.54 192.03 354.98 192.54 353.96 192.68 353.3 192.31 352.24 192.68 350.95 193.42 349.98 193.69 347.91 193.92 347.62 194.05 345.78 192.78 344.9 192.58 344.24 192.97 343.16 193.12 341.61 192.8 339.28 191.53 337.44 191.19 335.99 190.58 334.64 190.4 332.77 191.88 330.12 195.09 328.72 195.66 327.11 195.57 326.11 195.21 325.5 194.84 324.77 194 323.58 191.78 321.5 189.52 318.73 188.44 315.6 188.17 313.39 186.87 312.07 185.3 308.73 184.56 307.87 184.19 307.1 183.47 306.73 182.94 305.43 182.42 302.06 181.75 302.04 181.24 301.8 180.56 298.5 178.03 297.37 177.42 291.93 172.83 292.99 172.14 294.24 169.9 294.69 167.79 295.5 166.97 296.57 166.41 297.26 165.44 297.46 164.79 297.47 164.71 297.47 164.7 298.45 165.36 298.87 165.46 299.15 165.59 299.76 166.25 300.06 166.51 303.28 168.26 306.21 170.35 307.92 171.13 313.62 172.26 317.25 173.32 321.02 174 324.66 175.06 328.43 174.55 331.79 173.32 335.29 172.45 338.93 171.76 342.41 171.05 345.9 170 349.27 168.96 356.04 167.44 356.95 167.29 364.98 166.83 366.44 166.48 367.44 165.64 367.39 166.61 366.23 167.01 364.78 167.19 363.85 167.48 363.59 167.61 363.3 167.56 362.76 167.39 362.45 167.44 361.88 167.66 361.57 167.73 360.38 167.57 359.33 167.57 359.49 167.85 359.78 167.95 360.45 167.92 360.04 168.06 359.88 168.07 360.37 168.73 361.2 169.1 361.29 169.11"/><polygon id="Markazi" class="cls-2" points="299.93 201.1 300.5 200.98 301.07 199.82 302.01 199.74 302.95 200.92 303.48 201.94 303.49 203.69 301.73 209.41 301.15 210.22 300.47 212.16 300.11 215.99 299.87 216.94 299.49 217.17 297.38 217.88 294.85 218.28 293.64 219.08 291.86 219.59 290.03 219.34 288.86 220.28 288.83 221.91 289.26 222.5 289.04 223 287.14 224.07 286.94 225.36 288.05 226.65 288.95 227.46 289.69 227.8 290.5 227.73 291.11 228.09 291.7 228.8 292.02 229.53 291.93 230.54 292.43 231.77 293.37 232.94 294.72 234.06 299.98 234.55 302.08 235.71 306.79 237 306.55 238.46 304.6 243.18 304.06 244.15 302.89 244.16 301.6 244.57 300.46 245.53 299.18 246.32 290.68 248.56 287.44 250.49 285.75 251.9 285.57 251.7 284.27 251 284.13 250.3 284.16 249.58 283.72 249.13 283.06 248.62 282.73 248.04 282.28 247.76 281.56 248.27 281.16 249.06 281.03 249.7 280.55 250.02 279.92 249.52 279.22 248.78 277.69 248.01 277.02 247.44 276.83 246.86 277.05 246.14 277.38 245.43 277.35 244.78 276.8 243.83 275.9 242.74 274.78 242.39 273.76 242.97 272.63 243.35 271.73 243.88 271.03 246.02 270.64 246.43 269.01 247.46 268.45 247.25 266.15 247.05 264.8 246.55 263.76 245.95 263.5 245.43 263.61 244.84 263.77 244.3 264.59 242.41 264.52 241.85 264.27 241.19 264.41 240.39 264.73 239.87 266.86 237.95 267.22 237.46 267.28 236.88 266.9 235.29 266.79 233.94 266.47 232.59 265.02 229.74 264.86 227.14 264.51 225.57 263.48 225.16 263.19 224.47 263.9 224.19 266 224.4 266.94 224.86 267.4 224.75 267.05 222.84 267.12 221.1 267.67 220.21 267.91 219.33 267.68 217.88 268.19 217.11 271.9 216.91 273.66 217.22 274.15 217.93 273.72 218.86 274.03 219.99 274.83 220.94 275.5 221.55 276.39 221.64 276.89 220.63 276.45 217.96 275.93 216.72 274.95 215.56 273.91 215.06 271.72 214.45 270.8 213.98 270.33 213.53 270.28 213.17 270.65 212.75 271.26 212.69 272.44 212.32 273.43 211.17 273.17 210.02 272.26 208.5 271.87 206.83 272.51 206.02 273.07 205.97 273.11 206.44 273.09 207.07 273.49 207.65 274.19 207.77 274.87 207.01 274.95 206.05 274.47 205.41 274.3 204.52 274.31 203.93 277.89 203.83 278.5 202.42 279.36 201.78 282.94 200.69 284 200.16 285.12 199.84 286.06 199.78 289.72 198.18 290.94 198.11 291.55 198.2 292.42 198.41 294.48 198.54 296.48 199.13 297.66 200.19 298.17 200.49 298.38 200.12 298.38 199.7 297.59 198.6 297.85 197.93 299 197.94 299.79 198.87 299.78 200.26 299.93 201.1"/><polygon id="Lorestan" class="cls-2" points="238.69 230.98 239.2 231.21 240.08 231.78 240.5 232.39 249.25 238.15 253.78 238.7 254.54 238.98 255.14 238.82 256.21 237.72 256.75 237.57 257.83 237.64 259.17 237.49 264.73 239.87 264.41 240.39 264.27 241.19 264.52 241.85 264.59 242.41 263.77 244.3 263.61 244.84 263.5 245.43 263.76 245.95 264.8 246.55 266.15 247.05 268.45 247.25 269.01 247.46 270.64 246.43 271.03 246.02 271.73 243.88 272.63 243.35 273.76 242.97 274.78 242.39 275.9 242.74 276.8 243.83 277.35 244.78 277.38 245.43 277.05 246.14 276.83 246.86 277.02 247.44 277.69 248.01 279.22 248.78 279.92 249.52 280.55 250.02 281.03 249.7 281.16 249.06 281.56 248.27 282.28 247.76 282.73 248.04 283.06 248.62 283.72 249.13 284.16 249.58 284.13 250.3 284.27 251 285.57 251.7 285.75 251.9 285.3 252.88 285.21 254.2 285.26 255.26 283.2 259.41 283.08 259.98 283.04 260.43 282.55 260.73 279.52 261.58 278.35 262.96 277.98 265.85 277.05 266.55 275.42 267.09 274.95 267.39 274.68 267.88 274.56 268.47 274.57 268.7 273.07 269.02 270.21 268.75 265.45 265.47 260.94 265.01 259.67 264.62 258.62 263.6 256.5 262.97 254.34 263.13 252.9 263.58 247.87 263.91 246.77 264.76 243.98 272.09 242.87 273.73 242.62 273.49 242.22 272.91 238.93 265.98 236.53 262.82 235.86 262.08 235.56 261.93 235.18 261.81 234.91 261.52 234.51 260.75 234.03 260.18 233.8 260.08 233.5 260.06 233.23 259.97 233.12 259.67 232.91 259.42 230.4 258.15 229.53 257.94 229.01 257.63 228.64 257.24 228.64 256.92 228.28 256.76 227.27 255.98 227.17 255.87 227.06 255.78 226.9 255.74 226.76 255.77 226.66 255.88 226.55 255.91 226.4 255.86 226.34 255.74 226.31 255.62 226.27 255.56 225.5 255.32 225.13 255.14 224.87 254.91 224.6 254.58 224.54 254.38 224.78 253.95 224.81 253.7 224.73 253.5 224.52 253.41 223.4 252.72 222.98 252.57 222.44 251.89 221.8 251.55 221.34 250.74 221.02 250.55 221 250.36 221.31 249.42 221.37 249.05 221.72 248.9 222.08 248.86 222.53 247.74 223.79 246.54 230.93 244.53 231.34 243.95 232.47 243.19 232.96 242.67 233.23 242.12 233.34 241.34 233.16 240.14 232.69 239.05 232.41 238.67 232.76 238.42 233.06 237.94 232.98 237.75 232.96 237.49 233.02 237.03 232.98 236.75 232.88 236.55 232.74 236.4 232.62 236.23 232.56 236 232.69 235.64 233.86 235.06 235.32 234.99 236.31 234.48 236.43 233.09 236.24 231.76 236.3 231.21 236.69 230.95 237.29 230.79 238.69 230.98"/><polygon id="Kurdistan" class="cls-2" points="249.53 197.59 246.53 195.95 245.8 196.16 246.16 197.16 246.76 197.94 247 198.48 247 199.11 245.55 199.61 244.96 200.18 244.29 200.48 243.66 200.31 242.7 198.3 242.23 198.35 241.16 199.54 240.84 200.18 242.26 202.29 244.46 207.21 245.46 208.43 246.29 208.95 247.46 210.11 248.02 212.42 247.62 214.28 246.9 215.43 246.22 216.03 245.78 215.79 245.12 214.17 244.75 214.27 244.51 214.97 243.77 215.37 242.52 215.73 241.9 216.07 241.27 216.09 240.39 215.96 237.25 212.42 234.92 211.35 234.12 210.66 233.52 210.61 233.31 211.09 233.67 211.83 233.61 212.68 232.91 213.32 229.99 213.51 229.77 214 229.65 215.61 229.24 215.85 228.44 215.79 227.17 215.92 225.94 217.21 225.08 217.5 224.82 218.04 224.82 218.76 224.38 219.25 223.72 219.37 223.32 219.9 223.23 220.72 222.44 221.14 221.06 221.34 219.22 221.12 218 221.25 217.32 220.51 217.3 219.53 217.46 218.8 217.38 218.28 216.91 218.31 216.04 217.71 211.13 210.99 207.26 207.93 206.69 207.74 206.74 207.64 206.59 206.91 206.1 206.34 204.98 205.33 203.67 203.23 203.41 202.51 203.4 202.28 203.45 202.08 203.56 201.91 203.72 201.79 203.8 201.69 203.82 201.59 203.79 201.48 203.72 201.38 203.49 200.9 203.31 200.39 203.4 200.37 203.5 200.37 204.12 200.56 204.18 200.21 203.98 199.25 203.98 198.83 204.06 198.39 204.22 198 204.48 197.71 204.9 197.56 206.32 197.6 206.74 197.51 207.76 196.96 208.57 197.01 208.99 196.96 209.31 196.65 209.59 196.24 210.21 195.84 210.53 195.55 210.77 195.14 210.81 194.75 210.66 194.41 210.32 194.17 209.88 194.12 209.51 194.3 209.16 194.55 208.78 194.69 207.91 194.88 207.47 194.9 207.06 194.72 206.9 194.58 206.77 194.44 206.69 194.27 206.58 193.76 206.49 193.67 206.34 193.64 205.71 193.4 205.37 193.4 205.04 193.52 204.65 193.75 204.24 193.88 202.94 193.82 202.29 194.05 202.07 194.03 201.87 193.96 201.66 193.95 201.16 194.37 200.77 194.57 200.35 194.6 200.02 194.37 199.79 194.33 199.02 194.56 198.65 194.46 198.4 194.12 197.88 192.82 196.94 191.48 196.33 190.92 195.78 190.82 195.51 190.65 194.76 189.95 193.97 189.66 193.97 189.66 193.98 189.65 194.67 189.23 195.47 188.43 195.81 187.61 196.94 186.32 197.22 185.09 197.67 184.63 197.91 184.22 198.52 183.55 201.84 182.48 202.82 180.98 202.85 179.76 203.3 179.18 205.09 178.47 210.22 179.21 220.76 178.22 221 178.43 221.16 178.73 221.44 179.12 221.85 179.46 222.2 179.84 222.98 180.39 225.1 180.97 227.41 181.18 228.95 180.5 229.81 179.5 230.16 178.8 230.27 178.4 230.13 177.98 230.21 177.48 230.82 177.12 231.31 176.96 231.9 177.56 242.18 179.6 242.25 179.72 242.89 180.43 243.03 180.7 243.11 181.19 243.31 181.75 243.54 182.25 243.73 182.53 243.52 182.73 243.48 182.96 243.6 183.57 243.57 183.74 243.49 183.9 243.43 184.07 243.45 184.26 243.53 184.29 243.89 184.33 244.27 185.76 244.27 188.33 243.82 190.18 243.02 191.02 242.68 191.93 242.96 192.6 248.58 196.02 248.95 196.37 249.35 197.06 249.53 197.59"/><polygon id="Kohgiluyeh_and_Boyer-Ahmad" data-name="Kohgiluyeh and Boyer-Ahmad" class="cls-2" points="295.99 302.85 297.07 302.79 297.69 302.87 305.28 309.63 305.98 309.62 308.32 309.93 309.42 309.35 310.44 308.46 311.76 308.21 312.45 308.26 312.6 309.85 313.73 312.77 315.93 315.11 318.78 317.17 319.19 317.58 319.8 320.54 319.81 321.67 319.7 321.91 319.17 322.43 318.17 323.02 317.04 323.33 314.88 322.77 314.11 322.31 313.66 321.72 313.14 321.61 310.8 320.47 309.14 320.06 308.84 320.41 309.18 322.41 309.81 324.21 309.86 324.75 309.58 325.26 309.73 325.77 310.23 326.61 310.2 327.83 309.77 328.74 304.32 331.93 303.46 332.06 300.04 331.86 297.99 332.36 297.99 332.42 297.63 332.09 296.87 331.54 294.49 330.68 294.14 326.96 293.76 325.39 293.1 324.65 292.96 323.43 294.14 320.65 293.79 319.4 292.64 318.56 290.69 317.52 289.1 315.94 288.28 314.88 284.8 315.34 284.66 314.76 284.87 313.98 284.96 313.27 285.06 312.91 285 311.95 284.07 308.59 284.05 307.19 284.39 306.42 284.9 305.73 285.6 305.2 287.17 304.54 289.61 302.35 290.97 300.52 292.42 301.41 295.99 302.85"/><path id="Khuzestan" class="cls-3" d="M294.14,327l-.38-1.57-.66-.74-.14-1.23,1.18-2.77-.35-1.25-1.15-.84-1.94-1-1.6-1.58-.82-1.06-3.48.46-.14-.58.21-.78.09-.71.1-.36-.06-1-.93-3.36,0-1.4.34-.77.51-.69.7-.53,1.57-.66,2.44-2.19,1.36-1.83.73-1.4,1.11-1.4.06-1.11-.6-1.33-1.73-1.87-.4-.7-1-.92-.63-1-.61-1.44-.55-2-.28-.63-.33-.34-1-.31-.29-.34-.51-.37-.5-.65-.64-1.62-3.07-4.88-.33-1.46-.08-.71.54-1.8.44-.68-.84-1.15-2.05-.77-1.77.11-1.1-.59-1-2.45-1.5.32-2.86-.27-4.75-3.28-4.52-.46-1.27-.39-1.05-1L256.5,263l-2.16.16-1.44.45-5,.33-1.1.85L244,272.09l-1.11,1.64L241,278.11l-1.49,2.06,0,1.23.25,1.54-.73,1.19-2.13,1.4-.55.22.3.44.47,1.05.31.35.71.35.2.43h0l.1.43.73,1.31.14.19.37.24.15.15.12.22.1.42.07.18.33.36.81.61.27.43.06.51-.12.54-3.11,8.48,0,4.09-.07,5.76H245l.22.13.07.31-.07,11.43h0l0,.72,2.16.31.22.08.21.13.35.37.26.47.18.51.17,1,.09.23.16.17.23.1.24,0h.24l.75-.12h.26l.24.08.2.17.41.69.66.75.79.72.13.2.11.24,0,.26-.06.25-.15.2-.19.18-.16.2-.05.26,0,.16.26.55.41.46.11.24.06,0L254,335l0,.31.18.46.1.16.13.13.28.22.31.19.63.18.14.06,0-.05.11-.15v.16l1.5.15.47-.15.17-.11.19-.17.14-.2.06-.23-.05-.33-.27-.44-.1-.28.05-.41.33.07.87.48h1.43l.39.19.36-.17,1.38.17.42-.12.37-.3.27-.42L264,334l0-.27-.11-.45V333l.06-.27.18-.48,0-.3-.12-1.06-.13-.53-.17-.42-.34-.37-.41-.31-.36-.37-.15-.5.07-.13.14-.19.08-.17-.23-.21.1-.29.18-.29.08-.1L264,326l.23-.07,1.11.16h.34l.41-.41-.16-.42-.51-.33-.65-.13-.55-.24.15-.49.58-.36.73.11.35-.2.34,0,.37.11.41.07.1,0,.19-.11.13,0,.14.08.23.32.12.09.28-.07.21-.16.18,0,.17.27-.08.1,0,.08,0,.3.32-.23.31-.35.24-.11.16.86.19.37.31.2.42-.09,0,.4-.12.26-.6.77-.39.69-.12.32-.26-.37-.28-.25-.34-.14-.45,0-.29-.1-.83-.44-.42-.11-.37.06-.68.23-.43,0-.83-.14-.34.09-.22.39.65.17.54.28.36.47.13.77.28.26,1.35.79.47.17.36,0,.21.24.18.3.37.23.35-.05.29-.28.21-.4.12-.4.25.17v.15l-.09.15,0,.18v.48l.09.14.28.2.06.07,0,1,.2.21.53,0,.42-.08.76-.33.42-.07.18.05.29.22.23,0,.24,0,.44-.11.22,0,.44,0,.19.05.2.08.22.14.08.1.05.12.15.22.16.4v1.07l.05.38.57.84.66.15.74-.31L284,331l.74-.27.76-.11.73.09.54.21,1.31-.66,2.1-.35,1.18.57,3.15.17ZM265.92,325l.17-.18,0-.1h0v.09l.2,0h.3v-.12l0-.24,0-.19-.07-.06.07-.05,0-.09,0-.12-.13,0h-.32l-.09.1H266l-.07-.1-.12,0h0l-.22.05v.22l-.07.09v.13l0,.08,0,.26.14.05.13.05.1-.11v.1Z"/><polygon id="South_Khorasan" data-name="South Khorasan" class="cls-2" points="485.35 237.91 498.04 237.88 499.63 237.61 499.64 237.61 499.86 239.74 500.44 243.5 500.4 244.46 499.77 245.89 499.6 246.69 500.11 248.48 501.4 249.72 503.04 250.4 504.64 250.52 506.14 250.44 506.93 250.5 507.61 250.67 507.93 250.86 508.27 251.17 508.45 251.52 508.43 251.56 508.28 251.83 507.98 251.94 507.01 252 506.65 252.25 506.59 252.6 506.66 253 506.7 253.42 506.58 253.91 506.37 254.19 505.7 254.61 505.11 255.13 504.34 256.19 503.35 257.54 502.24 259.04 501.25 260.38 501.13 260.72 501.15 262.64 501.45 264.2 502.04 266.19 502.73 268.54 503.44 270.96 504.19 273.51 505.02 276.32 505.92 279.67 506.61 282.25 506.57 284.21 506.29 286.13 506.17 286.53 505.64 287.22 505.48 287.59 505.55 287.74 505.72 287.84 505.84 287.97 505.66 288.5 505.71 288.75 505.81 288.98 505.89 289.24 505.92 289.76 505.77 291.25 505.82 292.41 506.1 294.63 505.84 296.4 505.89 296.96 506.19 298.12 506.43 300.36 507.11 300.65 509.17 300.95 512.59 301.45 512.62 301.46 512.99 302.85 512.71 305.72 511.4 308.87 510.44 312.36 510.01 318.57 510.1 320.38 511.13 324.98 511.1 325.71 510.78 326.2 510.09 326.48 507.31 326.58 505.64 325.14 502.43 320.56 499.92 318.7 498.03 318.18 497.57 317.81 496.85 317.05 495.73 316.85 480.43 321.2 479.79 321.5 471.65 309.64 468.73 307.45 445.51 296.95 445.8 296.48 446.87 293.73 448.96 290.47 449.71 288.37 452.43 284.73 452.77 283.6 452.95 282.42 453.42 281.07 453.46 279.75 452.64 278.39 452.02 277.04 451.99 276.31 451.39 275.63 451.08 275.07 450.93 274.54 451.28 273.67 451.83 272.77 452 272.02 451.9 270.17 452.41 269.55 453.28 268.05 453.95 265.17 456.79 260.88 463.2 256.62 464.11 255.69 465.12 254.06 465.24 253.36 465.85 252.23 462.76 249.97 462.59 249.27 462.38 248.69 461.9 248.34 461.33 247.78 461.23 246.74 461.54 245.35 462.06 244.09 462.14 243.11 461.92 242.03 462.35 240.22 462.55 238.59 461.75 237.3 461.63 236.66 461.93 235.95 463.03 235.53 466.27 235.94 468.37 236.59 468.92 236.18 469.5 235.53 475.56 234.63 477.45 233.54 479.58 232.75 480.67 233.69 482.67 236.96 485.35 237.91"/><polygon id="Razavi_Khorasan" data-name="Razavi Khorasan" class="cls-2" points="444.81 142.14 445.14 142.12 445.48 142.03 445.81 142.01 446.52 142.2 449.72 143.74 451.06 144.06 451.75 144.12 452.08 144.19 452.42 144.36 452.58 144.54 452.58 144.72 452.54 144.9 452.55 145.1 452.88 145.7 452.95 145.9 453 146.37 453 146.72 453.1 147.01 453.45 147.31 453.8 147.44 455.39 147.68 455.64 147.8 456.18 148.19 456.47 148.26 458.31 148.08 458.67 147.91 458.94 147.48 459.13 147.05 459.37 146.69 459.69 146.46 460.09 146.43 460.42 146.6 461.44 147.51 462.33 147.87 462.79 147.94 463.25 147.89 463.42 147.79 463.55 147.63 463.7 147.51 463.93 147.51 464.36 147.6 464.57 147.58 464.79 147.51 465.06 147.17 465.11 146.78 465.22 146.6 466.44 147.29 468.03 147.66 468.83 148.03 469.12 148.23 469.39 148.32 469.98 148.41 470.21 148.54 470.88 149.23 473.6 151.2 474.03 151.24 475.18 150.71 475.65 150.84 476.06 151.23 476.45 151.77 476.55 152.11 476.48 152.68 476.61 152.97 476.66 153.18 476.58 153.41 476.45 153.66 476.38 153.95 476.43 154.48 476.83 156.25 477.07 156.6 478.35 157.67 478.73 158.1 478.85 158.27 478.83 158.4 478.75 158.48 478.72 158.55 478.7 158.72 478.64 158.94 478.7 159.12 479.03 159.21 479.16 159.34 479.33 159.48 479.5 159.56 479.67 159.57 480.32 159.32 480.62 159.37 480.96 159.74 481.11 160.14 481.2 160.62 481.34 161.04 481.62 161.26 481.81 161.22 481.95 161.07 482.19 160.69 482.38 160.59 482.6 160.6 485.54 161.56 486.88 162.69 487.63 163.13 489.3 163.44 490.07 163.77 490.67 164.58 491.44 166.21 492.38 167.66 494.54 170.3 494.97 170.99 495.56 172.56 495.98 173.29 496.65 173.67 499.9 173.61 502.75 173.56 507.1 173.48 509.52 173.44 511.61 173.4 512.62 173.58 513.45 173.69 513.62 174.56 513.79 174.95 513.86 175.18 513.9 175.5 513.87 175.81 513.79 176.1 513.68 176.34 513.55 176.53 513.46 176.8 513.5 177.11 513.62 177.49 513.18 179.53 513.06 180.77 513.35 181.5 513.29 181.6 513.25 181.67 513.2 181.84 513.4 181.93 513.56 182.06 513.68 182.21 513.77 182.36 513.85 182.63 513.89 182.89 513.9 183.48 513.96 183.72 514.26 184.22 514.57 185.79 514.62 186.55 514.65 186.68 514.61 186.83 514.4 187.12 514.3 187.29 514.23 187.51 514.2 187.76 514.19 187.99 514.11 188.27 513.94 188.39 513.75 188.47 513.62 188.59 513.56 188.89 513.63 189.4 513.62 189.64 513.37 189.9 512.95 190.24 512.72 190.54 513 190.67 513.5 190.75 513.91 190.97 514.27 191.3 514.59 191.7 514.8 192.05 514.99 192.47 515.11 192.92 515.21 193.82 515.28 194.2 515.29 194.6 515.16 195.17 515.29 195.35 515.3 195.6 515.16 196.2 515.15 196.34 515.16 196.78 515.1 196.96 514.82 197.23 514.74 197.38 514.8 198.05 515.07 198.62 515.57 199.39 515.72 199.63 515.93 200.65 515.99 201.16 515.86 201.68 515.59 202.15 515.11 202.74 514.88 203.22 514.71 204.01 514.59 204.26 514.16 204.84 514.05 205.12 513.95 205.63 514.05 206.92 513.88 207.36 513.49 207.58 513.01 207.67 512.57 207.68 512.28 207.92 512.16 208.45 512.14 208.99 512.16 209.23 512.27 209.34 512.37 209.58 512.36 209.82 512.16 209.92 512.03 210.04 512.14 210.28 512.87 211.27 512.92 211.37 512.88 211.66 512.83 211.88 512.86 212.08 513.07 212.31 512.58 213 512.43 213.36 512.31 214.39 512.01 215.32 511.95 215.81 511.88 216.05 511.59 216.52 511.53 216.83 511.55 217.08 511.64 217.55 511.65 217.76 511.57 218.64 511.4 219.46 510.78 219.67 510.66 220.08 510.27 220.79 509.62 221.3 509.25 221.73 509.23 222.32 509.29 222.96 509.21 223.56 509 223.85 508.76 223.9 508.5 223.88 508.21 223.93 507.94 224.09 507.8 224.25 507.7 224.45 506.77 225.51 506.38 225.78 505.87 225.92 504.75 226.07 504.24 226.34 503.94 226.86 504.16 226.89 504.34 226.99 504.47 227.16 504.64 227.75 504.82 227.92 505.32 228.15 505.57 228.38 505.77 228.66 506.09 229.31 507.6 231.28 507.83 231.74 506.32 231.83 504.24 231.96 502.8 232.04 502.94 232.57 502.63 232.92 501.65 233.44 500.94 234.18 500.3 235.02 499.72 236.18 499.6 237.28 499.64 237.61 499.63 237.61 498.04 237.88 485.35 237.91 482.67 236.96 480.67 233.69 479.58 232.75 477.45 233.54 475.56 234.63 469.5 235.53 468.92 236.18 468.37 236.59 466.27 235.94 463.03 235.53 461.93 235.95 461.63 236.66 461.75 237.3 462.55 238.59 462.35 240.22 461.92 242.03 462.14 243.11 462.06 244.09 461.54 245.35 461.23 246.74 461.33 247.78 461.9 248.34 462.38 248.69 462.59 249.27 462.76 249.97 465.85 252.23 465.24 253.36 465.12 254.06 464.11 255.69 463.2 256.62 456.79 260.88 453.95 265.17 453.28 268.05 452.41 269.55 451.9 270.17 451.36 269.78 449.71 267.19 447.98 266.11 446.66 265.51 446.17 265.13 444.44 264.14 443.11 261.1 441.59 250.79 440.78 249.23 439.91 248.11 434.7 249.33 430.65 248.84 429.69 247.33 428.42 240.25 428.59 236.09 431.16 228.34 432.55 225.83 440.63 220.1 442.6 218.16 442.88 216.57 442.18 215 436.23 210.43 433.96 209.83 428.83 211.16 420.72 215.01 412.38 217.19 415.67 213.13 418.3 210.72 420.61 209.34 424.92 207.71 425.54 207.22 426.41 205.21 429.96 199.09 430.27 197.34 428.93 195.8 424.09 191.84 423.54 190.43 422.88 187.38 422.5 182.64 422.8 179.88 423.62 178.31 424.17 175.94 423.67 173.94 422.84 173.44 422.19 173.42 421.79 173.53 421.85 172.84 421.7 171.94 421.86 170.78 423.04 169.21 427.95 165.22 431.2 165.37 444.71 172.88 450.36 173.75 451.9 173.37 452.67 172.65 453.35 170.66 453.18 169.87 452.45 169.43 452.18 169.03 452.31 168.32 453.52 167.01 453.45 166.42 452.77 166.09 452.37 165.47 452.19 164.81 451.93 164.93 451.63 165.71 451.09 165.79 450.72 165.07 450.15 164.45 449.16 163.75 449.06 162.86 449.89 161.83 451.11 158.21 451.85 157.18 452.05 156.42 452.07 155.91 452.26 155.47 452.79 154.81 453.25 153.98 453.12 152.95 452.56 151.8 450.71 150.06 450.24 148.99 449.98 148.12 449.6 147.63 440.45 147.2 439.67 146.64 440 145.75 440.23 144.79 440.23 143.66 441 142.88 443.48 141.35 443.55 141.36 443.88 141.28 444.05 141.32 444.19 141.46 444.38 141.85 444.5 142.01 444.81 142.14"/><polygon id="North_Khorasan" data-name="North Khorasan" class="cls-2" points="438.61 140.73 438.93 140.68 439.25 140.59 439.6 140.53 439.94 140.57 440.98 140.88 441.97 140.85 442.28 140.78 442.58 140.78 442.86 140.95 443.11 141.17 443.38 141.34 443.48 141.35 441 142.88 440.23 143.66 440.23 144.79 440 145.75 439.67 146.64 440.45 147.2 449.6 147.63 449.98 148.12 450.24 148.99 450.71 150.06 452.56 151.8 453.12 152.95 453.25 153.98 452.79 154.81 452.26 155.47 452.07 155.91 452.05 156.42 451.85 157.18 451.11 158.21 449.89 161.83 449.06 162.86 449.16 163.75 450.15 164.45 450.72 165.07 451.09 165.79 451.63 165.71 451.93 164.93 452.19 164.81 452.37 165.47 452.77 166.09 453.45 166.42 453.52 167.01 452.31 168.32 452.18 169.03 452.45 169.43 453.18 169.87 453.35 170.66 452.67 172.65 451.9 173.37 450.36 173.75 444.71 172.88 431.2 165.37 427.95 165.22 423.04 169.21 421.86 170.78 421.7 171.94 421.85 172.84 421.79 173.53 418.68 174.06 417.67 173.67 415.73 173.34 414.58 172.95 412.26 170.96 409.85 168.24 409.47 167.43 409.54 166.92 409.92 165.4 410.03 163.67 409.93 162.99 409.8 162.72 409.66 162.51 409.79 162.14 410.31 161.72 411.51 161.36 411.72 160.77 410.73 160.36 409.92 160.5 408.47 159.47 405.39 155.36 406.01 154.76 407.5 152.11 408.98 151.49 409.6 150.92 410.22 150.64 410.76 150.56 413.15 149.73 414.27 148.16 413.89 146.59 413.06 145.95 412.1 145.48 411.41 144.65 411.36 143.48 411.78 141.81 411.8 141.2 411.55 140.11 411.5 139.17 411.63 138.44 411.49 136.63 412.13 136.89 412.46 136.94 414.21 136.64 414.53 136.4 414.73 135.99 414.8 135.51 414.71 135.06 414.15 134.42 414.28 134.07 415.57 132.87 416.25 132.39 417 132.1 418.87 132.04 419.21 132.13 419.5 132.31 419.75 132.51 420.03 132.64 420.36 132.58 421.99 131.86 422.97 131.69 423.17 131.73 423.96 132.38 424.66 132.78 424.98 132.89 428.05 133.46 428.86 133.8 429.27 133.87 429.64 133.66 429.93 133.4 430.58 132.96 430.83 132.7 431.24 131.98 431.3 131.92 431.48 131.72 431.83 131.55 432.06 131.52 432.28 131.55 432.72 131.7 432.94 131.84 433 132.01 433.01 132.21 433.09 132.44 433.56 133.24 433.93 134.13 434.17 134.5 434.84 135.22 435.07 136 435.51 136.62 435.61 137.07 435.56 137.5 435.16 138.87 435.68 139.56 438.61 140.73"/><polygon id="Kermanshah" class="cls-2" points="216.91 218.31 217.38 218.28 217.46 218.8 217.3 219.53 217.32 220.51 218 221.25 219.22 221.12 221.06 221.34 222.44 221.14 223.23 220.72 223.32 219.9 223.72 219.37 224.38 219.25 224.82 218.76 224.82 218.04 225.08 217.5 225.94 217.21 227.17 215.92 228.44 215.79 229.24 215.85 229.65 215.61 229.77 214 229.99 213.51 232.91 213.32 233.61 212.68 233.67 211.83 233.31 211.09 233.52 210.61 234.12 210.66 234.92 211.35 237.25 212.42 240.39 215.96 241.27 216.09 241.9 216.07 241.91 216.44 241.8 217.14 241.13 217.92 240.32 219.74 239.36 221.15 237.32 221.39 236.67 221.64 236.38 222.03 236.58 223.02 237.61 223.86 239.11 224.68 239.78 224.81 240.33 225.1 240.63 226.13 241.15 226.92 242.89 225.1 243.83 224.69 244.3 224.59 244.69 225.18 244.9 226.19 244.68 227.82 244.73 228.97 244.11 229.49 241.82 229 239.79 229.14 239.04 230.28 238.69 230.98 237.29 230.79 236.69 230.95 236.3 231.21 236.24 231.76 236.43 233.09 236.31 234.48 235.32 234.99 233.86 235.06 232.69 235.64 232.56 236 232.62 236.23 232.74 236.4 232.88 236.55 232.98 236.75 233.02 237.03 232.96 237.49 232.98 237.75 233.06 237.94 232.76 238.42 232.41 238.67 232.07 238.57 231.38 238.51 228.11 239.26 228.11 240.02 228.67 240.86 228.97 241.48 228.69 243.06 228.26 243.9 225.06 243.76 221.59 244.65 219.21 244.45 214.09 242.8 212.59 241.49 211.22 240.65 209.57 240.27 207.93 240.15 204.87 238.9 201.71 239.3 200.51 239.26 200.13 239.7 200.42 240.64 200.19 242.22 199.42 244.67 198.99 248.22 198.52 248.61 198.45 248.42 197.49 247.73 197.18 247.42 196.9 247.02 196.7 246.62 196.56 246.19 196.47 245.69 196.32 245.28 196.06 244.99 195.74 244.72 195.47 244.42 193.65 241.11 193.61 241.07 193.57 241.06 193.52 241.05 192.92 241.14 192.39 241.11 191.92 240.84 191.5 240.25 191.94 240.05 192.14 239.92 192.31 239.74 192.31 239.74 192.31 239.74 192.62 239.06 192.79 238.43 193.02 237.88 193.52 237.44 193.82 237.12 194.64 236.44 194.85 236.17 194.85 235.89 194.73 235.68 194.58 235.47 194.49 235.19 194.53 234.96 194.81 234.49 194.91 234.27 195.19 233.08 195.23 232.47 195.12 231.91 194.8 231.43 194.38 231.16 193.93 231.16 193.52 231.49 193.14 231.21 192.88 230.67 192.25 228.64 192.45 228.31 193.52 228.07 193.67 227.94 193.8 227.78 193.92 227.6 194.01 227.41 194.04 226.68 193.87 225.67 193.96 224.99 194.75 225.23 195.45 225.6 196.08 225.75 197.48 225.86 197.93 226.02 198.05 225.99 198.14 225.83 198.19 225.57 198.2 225.31 198.14 225.14 197.91 224.82 197.84 224.4 197.83 223.94 197.77 223.47 197.68 223.29 197.58 223.17 197.48 223.02 197.42 222.76 197.34 222.56 197.19 222.38 197.01 222.23 196.84 222.14 196.54 221.79 196.7 221.39 197.26 220.74 197.33 220.45 197.28 219.95 197.34 219.65 197.54 219.37 197.8 219.26 198.38 219.2 198.95 218.81 199.05 218.2 199.01 217.57 199.15 217.09 199.62 217.07 199.98 217.26 200.22 217.39 200.78 217.59 201.08 217.17 201.24 216.56 201.41 216.11 201.47 215.64 201.28 215 201.28 214.99 201.22 214.65 201.22 214.32 201.32 214.04 201.54 213.82 201.67 213.78 201.96 213.75 202.08 213.68 202.12 213.57 202.07 213.26 202.09 213.14 202.37 212.68 202.51 212.62 202.81 212.72 203.24 213 203.45 213.09 203.72 213.07 204.33 213.34 204.65 213.25 204.95 212.97 205.5 212.64 205.7 212.62 206.07 212.71 206.59 212.54 206.84 212.49 207.06 212.37 207.22 212.07 206.8 211.58 207.07 210.87 207.51 210.12 207.59 209.46 207.28 209.2 206.49 209.21 206.21 209.01 206.15 208.62 206.34 208.3 206.59 208 206.69 207.74 207.26 207.93 211.13 210.99 216.04 217.71 216.91 218.31"/><polygon id="Kerman" class="cls-2" points="445.51 296.95 468.73 307.45 471.65 309.64 479.79 321.5 475.61 340.97 475.42 342.93 475.91 343.44 476.83 344.05 477.64 346.1 478.35 351.05 478.29 353.09 477.66 355.41 475.95 358.02 475.66 359.52 475.95 361.07 475.98 362.98 476.58 364.24 476.79 365.14 476.76 366 476.16 366.65 475.24 367.38 470.49 370.14 468.18 370.93 467 371.56 467.75 372.74 469.43 374.01 470.15 375.19 469.52 377.28 467.17 380.36 467.31 388.35 467.04 390.99 464.69 400.21 464.69 402.49 465.18 404.41 465.26 405.26 465.2 406.74 465.62 408.29 467.17 410.08 468.25 412.27 467.67 414 467.1 414.99 467.43 415.51 468.08 416.1 468.1 416.88 467.45 417.67 466.94 418.71 467.32 420.04 468.02 420.88 468.2 421.75 467.87 422.63 467.49 423.09 467.52 423.83 467.25 424.2 467 424.79 467.01 426.19 466.89 427.04 466.49 428.03 465.65 426.77 465.36 426.53 464.8 426.53 464.01 426.22 463.42 426.37 462.81 427 461.94 427.11 460.93 427.07 460.09 426.88 459.74 426.27 459.68 425.56 459.48 425.06 459.43 424.62 459.62 424.2 459.65 423.96 459.27 423.71 458 423.51 457.21 423.16 456.5 422.99 455.79 423.33 454.69 423.43 453.01 423.13 450.31 423.32 450.27 422.86 450.69 422.35 450.93 421.07 450.93 420.42 450.81 419.76 451.29 415.31 451.57 414.61 451.94 414.15 452.06 413.77 452.03 413.19 451.54 411.73 451.56 411.27 452 411.29 453.28 412.07 453.45 411.63 452.87 410.37 451.67 408.98 450.14 407.7 448.74 406.85 447.39 406.82 446.56 407.39 446.07 408.07 445.11 408.97 444.49 408.79 443.11 407.76 436.81 404.41 436.4 403.09 435.76 394.5 435.14 392.7 434.59 391.57 434.04 391.29 433.57 390.62 433.93 389.91 434.5 389.43 434.36 388.28 433.44 386.87 432.51 385.86 432.03 384.94 431.22 383.88 430.16 383.3 429.53 383.22 429.13 382.88 428.83 382.39 428.09 378.8 428.27 376.43 428.11 376.06 425.98 375.01 424.87 374.97 423.93 375.71 423.31 376.48 421.1 378.58 418.7 379.76 417.4 380 414.97 379.63 412.87 378.36 411.12 376.74 409.3 374.39 408.88 372.12 409.38 370.4 408.99 361.55 408.42 360.7 407.81 360.78 405.41 361.9 401.33 365 400.28 365.27 399.37 364.81 398.48 364.19 397.58 363.02 395.76 361.59 392.07 360.54 390.34 360.42 386.22 350.16 385.03 349.66 380.36 349.23 379.45 348.64 378.96 348.15 378.52 347.36 378.29 346.46 376.63 343.02 376.07 341.16 376.08 340.7 376.97 340.3 377.18 340.12 379.24 339.87 379.88 339.41 379.86 338.75 379.58 337.81 379.36 336.47 379.62 328.82 378.96 328.37 378.3 327.56 377.82 325.2 376.61 322.03 375.47 319.87 375.42 318.69 375.87 316.97 376.82 315.17 378.61 313.17 390.07 311.13 392.68 311.23 394.35 311.57 398.2 311.05 401.66 309.52 401.96 307.87 402.23 300.35 403.13 298.41 413.96 292.69 415.4 291.15 419.64 288.75 420.58 287.73 421.02 287.06 423.63 287.52 445.51 296.95"/><polygon id="Isfahan" class="cls-2" points="328.15 228.7 333.73 228.34 335.12 228.56 343.81 231.42 344.87 231.59 393.54 230.13 394.66 230.5 395.16 230.93 395.35 231.17 395.58 247.81 395.04 249.55 393.3 252.58 392.13 253.4 390.54 253.57 388.51 254.66 387.42 256.02 386.49 260.1 385.82 261.91 385.04 263.4 383.92 264.77 381.76 266 360.18 273.45 353.72 271.97 352.23 272.02 350.26 272.79 349.04 273.57 348.14 274.33 346.82 275.08 345.35 275.51 344.54 276.06 344.38 276.86 344.97 284.28 344.78 285.83 343.93 289.21 343.54 292.12 343.32 292.71 343.38 294.38 344.27 297.9 344.23 297.9 337.27 299.92 335.76 299.93 331.22 298.92 330.27 298.06 330.07 295.85 329.76 295.2 329.41 295.14 326.63 296.67 326.24 297.21 325.65 297.47 322.91 299.33 321.38 299.55 319.4 299.08 319.32 299.79 319.8 300.91 320.43 301.55 321.23 301.86 322.13 302.03 323.3 302.93 323.89 304.54 323.4 306.16 322.98 308.6 321.26 312.91 321.1 314.98 321.31 316.39 321.32 317.15 320.74 317.34 319.19 317.58 318.78 317.17 315.93 315.11 313.73 312.77 312.6 309.85 312.45 308.26 312.66 307.44 312.71 305.58 310.85 299.4 310.4 296.68 310.52 295.39 311.21 294.9 312.08 294.52 312.03 293.79 311.41 293.01 311.01 292.27 311.1 291.53 311.91 290.96 312.56 289.69 312.18 287.19 311.12 285.25 308.75 283.46 307.67 282.37 305.08 280.35 304.88 278.46 305 276.71 304.55 276 304.38 275.3 304.07 274.95 303.53 274.81 303.33 274.23 303.13 273.12 302.33 272.43 301.45 272.58 301 273.07 300.16 273.36 297.48 273.44 296.68 273.59 294.4 275.07 293.48 275.27 292.85 275.06 291.85 275.28 290.52 275.12 289.28 274.09 288.03 273.4 287.12 273.59 286.48 273.92 285.75 274.04 284.36 273.86 280.34 276.03 280.88 274.23 281.32 273.55 280.48 272.4 278.43 271.63 276.66 271.74 275.56 271.15 274.57 268.7 274.56 268.47 274.68 267.88 274.95 267.39 275.42 267.09 277.05 266.55 277.98 265.85 278.35 262.96 279.52 261.58 282.55 260.73 283.04 260.43 283.08 259.98 283.2 259.41 285.26 255.26 285.21 254.2 285.3 252.88 285.75 251.9 287.44 250.49 290.68 248.56 299.18 246.32 300.46 245.53 301.6 244.57 302.89 244.16 304.06 244.15 304.6 243.18 306.55 238.46 306.79 237 306.21 236.69 305.78 235.62 306.4 230.78 306.64 230.06 307.4 229.29 309.35 228.44 313.75 227.93 315.33 228.01 322.21 226.22 326.15 228.37 328.15 228.7"/><polygon id="Ilam" class="cls-2" points="232.41 238.67 232.69 239.05 233.16 240.14 233.34 241.34 233.23 242.12 232.96 242.67 232.47 243.19 231.34 243.95 230.93 244.53 223.79 246.54 222.53 247.74 222.08 248.86 221.72 248.9 221.37 249.05 221.31 249.42 221 250.36 221.02 250.55 221.34 250.74 221.8 251.55 222.44 251.89 222.98 252.57 223.4 252.72 224.52 253.41 224.73 253.5 224.81 253.7 224.78 253.95 224.54 254.38 224.6 254.58 224.87 254.91 225.13 255.14 225.5 255.32 226.27 255.56 226.31 255.62 226.34 255.74 226.4 255.86 226.55 255.91 226.66 255.88 226.76 255.77 226.9 255.74 227.06 255.78 227.17 255.87 227.27 255.98 228.28 256.76 228.64 256.92 228.64 257.24 229.01 257.63 229.53 257.94 230.4 258.15 232.91 259.42 233.12 259.67 233.23 259.97 233.5 260.06 233.8 260.08 234.03 260.18 234.51 260.75 234.91 261.52 235.18 261.81 235.56 261.93 235.86 262.08 236.53 262.82 238.93 265.98 242.22 272.91 242.62 273.49 242.87 273.73 240.99 278.11 239.5 280.17 239.53 281.4 239.78 282.94 239.05 284.13 236.92 285.53 236.37 285.75 236.32 285.69 235.93 285.52 235.62 285.49 235.44 285.28 235.28 285.03 235.01 284.87 234.69 284.77 234.56 284.67 234.54 284.48 234.58 284.14 234.66 283.88 234.78 283.67 234.89 283.43 234.92 283.1 234.81 282.78 234.42 282.48 234.31 282.17 234.11 282.07 233.98 281.94 233.62 281.44 233.54 281.3 233.44 281.17 232.84 280.59 232.74 280.45 232.61 280.12 232.61 280 232.69 279.91 232.87 279.46 232.99 279.33 233.06 279.17 233.03 278.89 232.91 278.71 232.37 278.3 232.03 277.86 231.8 277.49 231.54 277.18 231.1 276.95 229.95 276.56 229.66 276.54 228.73 277.05 228.37 277.19 227.65 277.27 227 277.13 226.38 276.8 225.73 276.32 225.73 276.32 225.73 276.32 219.59 270.95 218.74 269.99 217.4 269.18 216.47 268.42 216.39 268.37 214.49 267.27 213.91 266.69 211.88 265.72 209.72 265.04 207.31 265.31 206.12 265.17 205.68 264.2 205.68 264.19 205.94 263.9 206.27 263.62 206.58 263.31 206.71 262.89 206.6 262.56 206.3 262.3 205.92 262.13 205.02 262.03 204.74 261.78 204.76 261.49 205.17 261.26 205.62 261.22 205.96 261.24 206.29 261.18 206.72 260.85 207.27 260.31 207.55 259.96 207.69 259.65 207.68 259.43 207.45 259.28 207.36 259.05 207.37 258.85 207.49 258.38 207.49 258.13 207.31 257.72 207.02 257.43 206.37 256.9 205.56 255.75 204.88 255.09 204.77 254.74 204.76 254.33 204.7 253.83 204.53 253.37 204.3 252.95 203.62 252.09 203.56 252.04 203.49 252.01 203.41 251.96 203.39 251.95 203.29 251.93 203.18 251.95 203.08 252.01 202.71 252.37 202.09 252.44 201.48 252.3 201.13 252 201.45 251.58 202.42 250.99 202.67 250.62 202.53 250.08 202.09 249.78 201.73 249.41 201.81 248.66 201.37 248.77 200.38 248.79 200.01 248.94 199.42 249.52 199.08 249.74 198.73 249.83 198.59 249.66 198.59 248.79 198.52 248.61 198.99 248.22 199.42 244.67 200.19 242.22 200.42 240.64 200.13 239.7 200.51 239.26 201.71 239.3 204.87 238.9 207.93 240.15 209.57 240.27 211.22 240.65 212.59 241.49 214.09 242.8 219.21 244.45 221.59 244.65 225.06 243.76 228.26 243.9 228.69 243.06 228.97 241.48 228.67 240.86 228.11 240.02 228.11 239.26 231.38 238.51 232.07 238.57 232.41 238.67"/><path id="Hormozgan" class="cls-3" d="M378,422.54l.43-.88-.08-.16-.1-.12-.11-.09-.14-.07-.2-.22-.2,0-.17.09-.13.17-.08.27h0v.21l0,.23,0,.3.11.13.24.13.24.07Zm.41,7.39-.49.14-.26.15.08.25.32.15.28.07.21-.16,0-.4Zm-24.19-20.35-.47-.19-1.53-.12-1.72-.53-.2,0-.16.06-.15,0-.08.1.19.21.64.54.27.17,0,0,.36.15,1.16.21h.4l.37-.22.24-.05.78.06.3-.08-.17-.15Zm5.69,3-.21-.05h-.41l-.16.25.2.28.36.19.36.05.26-.27-.16-.34Zm28.74,18.27-.1-.16-.35.09-.3.17.08.22.06.13v.14l.1-.07.19.19.12-.07.17,0,.16-.14-.09-.26Zm-20.36-14.37-.05,0-.09-.08-.14-.08h0l0-.16v0h0v-.21h0l0-.05,0-.1h0l-.29-.12-.76-.07-.34-.12-.4,0-.36.11-.31.23-.2.31.41.68.66.32h.16l1.5.08.23-.12,0-.14.05-.13,0-.14Zm50.06-13.05-.2-.15-.23-.09-.22-.15-.36.08-.38.52,0,.57.64.25.32,0,.13-.07.14-.07.2-.21.07-.29-.06-.29Zm56.14,36.05-.16-.22-.72-1.23-.34-.34-.28-.36-.14-.46-.33-.41-.62-.24-.45-.46-.1-.82-.66-1.08-3.87-3.42-.73-.46-.27-.12-.09-.41.1-.73.37-.56.25-.13-.84-1.26-.29-.24h-.56l-.79-.31-.59.15-.61.63-.87.11-1,0-.84-.2-.35-.61-.06-.71-.2-.5-.05-.44.19-.42,0-.24-.38-.25-1.27-.2-.79-.35-.71-.17-.71.34-1.1.1-1.67-.3-2.71.19,0-.46.42-.51.24-1.28v-.65l-.12-.66.48-4.45.28-.7.37-.46.12-.38,0-.58-.49-1.46,0-.46.44,0,1.28.78.17-.43-.58-1.27-1.2-1.39-1.53-1.28-1.4-.85-1.34,0-.84.57-.49.68-1,.9-.62-.19-1.38-1-6.3-3.35-.41-1.32-.64-8.59-.62-1.8-.55-1.13-.55-.28-.47-.67.36-.71.57-.48-.14-1.15-.92-1.41-.93-1-.48-.91-.81-1.06-1.06-.58-.63-.08-.4-.34-.3-.49-.74-3.59.18-2.37-.16-.37L426,375l-1.11,0-.94.74-.62.77-2.21,2.1-2.4,1.18-1.3.24-2.43-.38-2.1-1.26-1.75-1.62-1.82-2.35-.42-2.27.5-1.72-.39-8.85-.57-.85-.61.08-2.4,1.12-4.08,3.1-1.05.27-.91-.46-.89-.62-.89-1.17-1.83-1.43-3.68-1-1.74-.12,1.18,3.54v.66l-.67.48.1,1.1,6.14,6,.54,1.46-.24,2.6-1,3.77-.1,1,.09.74,1.73,1.42,1,1.59-.12,1.31-.35.56-.47.34-.61.27-1.18-.07-1.87.48-2.78,1.5-.79,1.27-.67,2L389,393.53l-2.55.78-5.44-.77-1.86.43-1,.44-1-.34-1.24-.16-5.44.5-2.11.73-.9,1.11-.3,1.82-.43,1.26v.25l.23.67-.56.9-2.12,1.13-6.24-1.11h-.53l-1.48.38-.36-.05-.34-.17-1.72-1.41-.76-.3-4.54-.41-1.5-1.42-.56-1.08-.88.51-.27.1-1,0-1-.26h-.33l-1.33.13h-.22l-.42.18h-.09l-.11.14-.33.64,1.08.48.73.5,1.64,1.48.94.28.42.25.17.5.19.23,1.22.3.25.32.22.36.27.31.44.12.45,0,6.93,2.37.65.41.35.42.16.46,0,1.09.12.44.29.36,2,1.5,1.54.91,1.06.92.25.09.48-.26.5,0,.91.3.45,0,.83-.23.93-.13,1.34-.63.42-.09h.22l.17.08.39.32.22.07.35.05,1.4.41.43.05,1.55-.11.39-.11.41-.07.44.09.6.49.39.7.3.73.36.58.74.36,1.86-.07.91.18.6.56.25.66.35.52.89.14,1.75-.15.24,0,.35.21.26,0,.21-.05.15-.13.13-.15.14-.12,2.21-1.3,2-1.59.22-.15,1.33-1.19.31-.15.89-.26.4-.05.5-.11.19-.3.12-.41.24-.44.77-.37.94.13,1.64.57.92,0,.85-.17.77-.39.67-.6.28-.46.25-.65.12-.68-.08-.56-.15.14-.13.07-.29.1,1.1-1.23.23-.18.25-.14.69-.64.38-.17h.21l.64.15h.76l.18-.05.3-.22.23,0,.68,0,.22,0,.84-.21.91-.11.22-.07.38-.32.1-.08v-.09l.49-.42,1.38-.83.35-.3.17-.12.16,0,.11-.08,0-.24.07-.11.34-.34.17-.11.54-.11,1.32-.06.44-.21.47-.32.64-.17,1.26-.07.64.1,1.07.42.6.12,1.27.07.62.13.49.27.14-.17.46.15,2.12,0,.19.1.15.22.19.22.31.1h.55l.26-.09.24-.24.13.52.33.48.49.33.59.08v.17L426,404l-.36.38-.1.08-.19.09v.17l.14.12.26-.06V405l.05.19.12.08.4-.2.14.09.11.15.11.08.1.05.08.11.12.11.19,0,.21,0,.62-.27-.12.19-.08.22,0,.22.17.15-.25.12-.2.13-.22.09-.3,0,.21.22.62.42,0,.36.25.36.69.61.28.41,1.32,5.3.07,1.06-.34,2.85v.21l.08.52.05.2.1.17.39.38.23.41.14.51.12,1,.15.14-.11.61,1.35,1.49.28.73-.22.45-.64.7-.13.47.05.27.2.44.08.38.28.81.05.27,0,.09.08,0,.26,0,.09,0,.45.55,0,.09.2.18.17.43.26.92.49,1.15.12,1.11.14.35.3.17,2.73.18-.15.14,1.39.43.51,0,.2,0,.41-.11.23,0,.24.05.43.21.24,0,1.13-.26L443,434l.51,0,.43.11.32.28.21.52,0,.17v.09l-.06.11-.08.26-.08,1h.32l.45-.28.69-.57.83-.42.84-.22.77.18.64.77.61,1.3.45.61.54.25.68.11.65.21.66.13.75-.12.72-.5.12-.06.07.16.18,0,.21-.07.16-.12.24-.22h.1l.07.09.14.05.31-.07.47-.4.28-.14.65-.13.6,0-.15.36.38.18,1.1.08,1.27-.2,3.7.67h1.75l.23.08.11.18.08.22.12.22.19.09h.71l.8.36.5.61.94,1.51.27.22.34.15.41.08.46,0,.19,0,.19-.09.18,0,.15.09.15.15.17,0,.43-.1,1.16-.55,1.14-.17h0l-.09-.54.54-.23V440l.05-.37Zm-59-31.49-.52.24-.29.42-.09.61.38.15.78-.25.61-.54-.1-.7Zm-9.63,4.81-.2,0-.33.25-.26.51,0,.53.33.18.41-.24.29-.49,0-.54Zm7.73-6.82-.32-.25-.52-.23-.4-.1-.8,0-2.7.61-2.15,1.39-.77.18-2.85-1.08-.52.3.14.18.34.27.35.33.16.4.09,1-.07.43-.31.35.09.16.06.15-.2.07-.21.18-.15.07-.2,0-.43,0-.21,0-1.33.51-.41.34-.94.58h0l-.08,0-.25.1-.4,0-2.73.89-1.07.61h0l-.06,0-.12,0-.22.11-1-.34-.22.23.21.71.11.12,0,.26-.14.4.1.56.1.26.08.05.08.07h0l.19,0,.25-.08.22-.12.1-.16.08-.19h.21l.23.07.11,0h.06l.19-.07.38-.24.9-.25,1.26-.14.35-.19.7-.52,1.14-.48,1.09-.79.44-.21.41-.09.93.14h.44l.38-.21.37-.33,1.37-.7.52.41.44.45.47.2.6-.35,1-1,.17-.11.18-.21.77-.39.18-.19.13-.3.84-.87.24-.39.46-1,.45-.4,1.26-.33.66-.37-.17-.43Zm-19.44,16-.22-.11-.25.15-.15.08-.07.18.08.22.09.12.17,0h.2l.2-.13,0-.07,0-.14Z"/><polygon id="Hamadan" class="cls-2" points="249.53 197.59 250.22 198.85 251.14 199.42 255.52 199.57 257.31 200.54 259.02 200.97 260.56 200.42 261.31 199.4 261.3 198.96 262.25 198.54 264.48 198.58 266.18 199.56 266.95 200.53 266.33 201.48 267.73 202.55 270.34 202.99 270.91 202.84 273.81 203.57 274.31 203.93 274.3 204.52 274.47 205.41 274.95 206.05 274.87 207.01 274.19 207.77 273.49 207.65 273.09 207.07 273.11 206.44 273.07 205.97 272.51 206.02 271.87 206.83 272.26 208.5 273.17 210.02 273.43 211.17 272.44 212.32 271.26 212.69 270.65 212.75 270.28 213.17 270.33 213.53 270.8 213.98 271.72 214.45 273.91 215.06 274.95 215.56 275.93 216.72 276.45 217.96 276.89 220.63 276.39 221.64 275.5 221.55 274.83 220.94 274.03 219.99 273.72 218.86 274.15 217.93 273.66 217.22 271.9 216.91 268.19 217.11 267.68 217.88 267.91 219.33 267.67 220.21 267.12 221.1 267.05 222.84 267.4 224.75 266.94 224.86 266 224.4 263.9 224.19 263.19 224.47 263.48 225.16 264.51 225.57 264.86 227.14 265.02 229.74 266.47 232.59 266.79 233.94 266.9 235.29 267.28 236.88 267.22 237.46 266.86 237.95 264.73 239.87 259.17 237.49 257.83 237.64 256.75 237.57 256.21 237.72 255.14 238.82 254.54 238.98 253.78 238.7 249.25 238.15 240.5 232.39 240.08 231.78 239.2 231.21 238.69 230.98 239.04 230.28 239.79 229.14 241.82 229 244.11 229.49 244.73 228.97 244.68 227.82 244.9 226.19 244.69 225.18 244.3 224.59 243.83 224.69 242.89 225.1 241.15 226.92 240.63 226.13 240.33 225.1 239.78 224.81 239.11 224.68 237.61 223.86 236.58 223.02 236.38 222.03 236.67 221.64 237.32 221.39 239.36 221.15 240.32 219.74 241.13 217.92 241.8 217.14 241.91 216.44 241.9 216.07 242.52 215.73 243.77 215.37 244.51 214.97 244.75 214.27 245.12 214.17 245.78 215.79 246.22 216.03 246.9 215.43 247.62 214.28 248.02 212.42 247.46 210.11 246.29 208.95 245.46 208.43 244.46 207.21 242.26 202.29 240.84 200.18 241.16 199.54 242.23 198.35 242.7 198.3 243.66 200.31 244.29 200.48 244.96 200.18 245.55 199.61 247 199.11 247 198.48 246.76 197.94 246.16 197.16 245.8 196.16 246.53 195.95 249.53 197.59"/><polygon id="Golestan" class="cls-2" points="407.65 137.01 410.57 136.48 411.39 136.59 411.49 136.63 411.63 138.44 411.5 139.17 411.55 140.11 411.8 141.2 411.78 141.81 411.36 143.48 411.41 144.65 412.1 145.48 413.06 145.95 413.89 146.59 414.27 148.16 413.15 149.73 410.76 150.56 410.22 150.64 409.6 150.92 408.98 151.49 407.5 152.11 406.01 154.76 405.39 155.36 404.55 156.05 400.75 161.91 399.06 165.67 398.66 168.46 397.98 170.22 396.95 170.7 389.66 169.7 387.93 169.91 384.36 171.96 380.9 174.67 379.64 176.05 376.76 177.41 375.34 177.73 373.75 177.47 369.75 177.54 368.92 176.27 366.76 174.04 362.26 171.31 361.55 170.08 361.32 169.45 361.29 169.11 361.29 169.11 364.38 169.39 364.69 169.57 365.04 169.69 367.6 168.99 367.84 168.79 367.98 168.36 367.99 165.73 367.88 165.29 367.57 165.11 367.19 164.96 367.25 164.59 367.71 163.72 367.23 162.96 366.9 162.02 366.45 159.86 365.83 158.19 365.74 157.83 365.54 155.65 371.11 156.14 371.51 156.12 371.88 155.96 372.26 155.6 372.64 155.34 373.08 155.32 373.55 155.38 374 155.38 374.73 155.14 378.18 153.14 378.64 153.06 379.88 153.34 380.33 153.33 380.64 153.19 381.14 152.64 381.54 152.48 381.8 152.24 382.77 151.6 383.29 151.17 383.38 150.98 383.44 150.59 383.72 149.94 383.79 149.58 383.81 148.96 383.79 148.78 383.69 148.61 383.45 148.39 383.38 148.25 383.36 147.71 383.69 146.91 383.79 146.4 383.9 145.99 384.16 145.56 384.77 144.89 387.84 142.78 388.79 141.71 388.95 141.44 389.06 141.09 389.3 140.95 389.59 140.9 389.81 140.82 389.96 140.62 390.18 140.15 390.36 139.95 390.75 139.82 391.93 139.59 392.18 139.5 392.36 139.09 392.81 138.84 393.74 138.52 393.97 138.49 394.39 138.15 394.81 137.93 396.33 136.75 396.82 136.55 398.12 136.5 402.15 135.65 402.76 135.65 404.02 135.93 404.82 136.39 405.12 136.49 406.16 136.5 406.5 136.61 407.05 136.9 407.34 137 407.65 137.01"/><polygon id="Gilan" class="cls-2" points="262.76 127.45 262.82 129.74 262.59 130.5 262.73 131.05 262.77 132.43 263.16 133.38 263.44 136.56 264.29 139.58 264.13 140.07 264.11 140.66 264.19 141.22 264.35 141.62 265.07 142.79 265.08 143.06 265.01 143.29 264.98 143.47 265.2 144.49 265.62 145.46 266.65 147.01 268.03 148.44 269.52 149.51 272.81 151.23 274.33 151.75 282.18 152.81 283.02 152.68 283.71 152.39 284.37 152.27 285.1 152.65 284.9 152.68 284.68 152.62 284.56 152.6 284.4 152.81 286.1 153.47 288.75 154.09 289.71 154.46 290.36 155.07 290.28 156 290.45 156.35 290.72 157.28 290.91 157.65 291.2 158.11 291.68 159.5 292.29 160.51 293.01 161.19 294.48 162.31 295.49 163.53 295.8 163.72 296.19 163.83 297.47 164.7 297.47 164.71 297.46 164.79 297.26 165.44 296.57 166.41 295.5 166.97 294.69 167.79 294.24 169.9 292.99 172.14 291.93 172.83 289.16 172.56 287.47 172.93 287.02 173.17 286.59 173.32 282.76 175.4 281.75 175.58 279.87 175.21 279.42 174.9 278.8 174.79 277.76 174.84 274.96 174 273.72 172.83 272.56 171.36 272.31 170.56 272.27 170.12 270.34 169.19 269.13 165 268.27 163.6 266 161.21 262.93 159.24 262.71 158.61 262.54 157.27 262.62 156.15 262.61 155.41 261.92 154.54 260.62 153.51 259.49 152.35 256.11 147.01 254.23 141.81 254.28 140.4 254.93 139.38 255.1 138.01 255.53 137.01 260.14 131.53 260.32 131.05 260 130.72 259.23 130.54 258.74 130.34 258.63 129.85 258.2 129.3 257.55 128.72 257.43 128.45 258.37 128.53 258.87 128.39 259.42 128.15 259.93 127.83 260.34 127.42 260.79 127.17 261.44 127.17 262.76 127.45"/><polygon id="Fars" class="cls-2" points="335.76 299.93 337.27 299.92 344.23 297.9 344.27 297.9 349.46 299.9 352.55 302.74 355.17 305.93 359.93 317.98 363.32 324.05 366.57 328.05 367.46 329.63 368.18 334.79 368.77 336.2 371.94 338.59 376.08 340.7 376.07 341.16 376.63 343.02 378.29 346.46 378.52 347.36 378.96 348.15 379.45 348.64 380.36 349.23 385.03 349.66 386.22 350.16 390.34 360.42 391.52 363.96 391.52 364.62 390.86 365.11 390.96 366.2 397.1 372.16 397.64 373.62 397.4 376.22 396.37 379.99 396.27 380.96 396.37 381.7 398.09 383.12 399.06 384.71 398.94 386.02 398.59 386.58 398.12 386.92 397.51 387.19 396.33 387.12 394.46 387.6 391.68 389.1 390.89 390.37 390.22 392.41 389.04 393.53 386.49 394.31 381.05 393.54 379.19 393.97 378.18 394.41 377.21 394.07 375.97 393.91 370.53 394.41 368.42 395.14 367.52 396.25 367.22 398.07 366.79 399.33 366.79 399.58 367.02 400.25 366.46 401.15 364.34 402.28 358.1 401.17 357.57 401.17 356.09 401.55 355.73 401.5 355.39 401.33 353.67 399.92 352.91 399.62 348.37 399.21 346.87 397.79 346.31 396.71 342.24 393.77 339.62 391.3 336.93 387.98 334.17 381.78 332.63 379.98 331.95 379.58 331.05 379.22 330.54 378.38 327.55 369.92 327.08 367.82 317.92 350.56 316.12 348.9 314.49 348.29 313.18 346.91 311.74 344.63 310.64 342.11 309.27 340.59 306.48 339.68 301.97 339.34 300.81 338.9 299.56 336.36 298.53 335.33 297.99 333.63 297.99 332.42 297.99 332.36 300.04 331.86 303.46 332.06 304.32 331.93 309.77 328.74 310.2 327.83 310.23 326.61 309.73 325.77 309.58 325.26 309.86 324.75 309.81 324.21 309.18 322.41 308.84 320.41 309.14 320.06 310.8 320.47 313.14 321.61 313.66 321.72 314.11 322.31 314.88 322.77 317.04 323.33 318.17 323.02 319.17 322.43 319.7 321.91 319.81 321.67 319.8 320.54 319.19 317.58 320.74 317.34 321.32 317.15 321.31 316.39 321.1 314.98 321.26 312.91 322.98 308.6 323.4 306.16 323.89 304.54 323.3 302.93 322.13 302.03 321.23 301.86 320.43 301.55 319.8 300.91 319.32 299.79 319.4 299.08 321.38 299.55 322.91 299.33 325.65 297.47 326.24 297.21 326.63 296.67 329.41 295.14 329.76 295.2 330.07 295.85 330.27 298.06 331.22 298.92 335.76 299.93"/><polygon id="Chaharmahal_and_Bakhtiari" data-name="Chaharmahal and Bakhtiari" class="cls-2" points="312.45 308.26 311.76 308.21 310.44 308.46 309.42 309.35 308.32 309.93 305.98 309.62 305.28 309.63 297.69 302.87 297.07 302.79 295.99 302.85 292.42 301.41 290.97 300.52 291.7 299.12 292.81 297.72 292.87 296.61 292.27 295.28 290.54 293.41 290.14 292.71 289.13 291.79 288.5 290.8 287.89 289.35 287.34 287.34 287.06 286.71 286.73 286.37 285.76 286.06 285.47 285.72 284.96 285.35 284.46 284.7 283.82 283.08 280.75 278.2 280.42 276.74 280.34 276.03 284.36 273.86 285.75 274.04 286.48 273.92 287.12 273.59 288.03 273.4 289.28 274.09 290.52 275.12 291.85 275.28 292.85 275.06 293.48 275.27 294.4 275.07 296.68 273.59 297.48 273.44 300.16 273.36 301 273.07 301.45 272.58 302.33 272.43 303.13 273.12 303.33 274.23 303.53 274.81 304.07 274.95 304.38 275.3 304.55 276 305 276.71 304.88 278.46 305.08 280.35 307.67 282.37 308.75 283.46 311.12 285.25 312.18 287.19 312.56 289.69 311.91 290.96 311.1 291.53 311.01 292.27 311.41 293.01 312.03 293.79 312.08 294.52 311.21 294.9 310.52 295.39 310.4 296.68 310.85 299.4 312.71 305.58 312.66 307.44 312.45 308.26"/><path id="Bushehr" class="cls-3" d="M292.33,353.1l-.37-.17-.22-.09-.24.15.15.27.12.46.2.52.21.18.2,0,.13-.35-.06-.41.1-.4Zm49.91,40.67-2.62-2.47L336.93,388l-2.76-6.2-1.54-1.8-.68-.4-.9-.36-.51-.84-3-8.46-.47-2.1-9.16-17.26-1.8-1.66-1.63-.61-1.31-1.38-1.44-2.28-1.1-2.52-1.37-1.52-2.79-.91-4.51-.34-1.17-.44-1.24-2.54-1-1-.54-1.7v-1.21l-.36-.33-.76-.56-2.38-.85-3.15-.17-1.18-.57-2.1.35-1.31.66h0l.17.06.3.21.12.25.11.38.27.48.32.43.29.23-.12.62.46,1.33-.22.8.28.14.12.17-.08.13-.32,0,.08.25v.43l.06.29.08.1.79.82.84.52.38.34.5.71.92,1.71.55.79.55.61.29.45.13.47.19.24,1.2.49.67.67.32.45.14.4.18.31,1.07.89.58.87.12.26v-.7l.31.15.4.55.27.48.15.64.11.93v.91l-.15.57.25.45.13.14.19.07,0,.16-.09.95-.31-.33-.18.17-.13.39-.15.32-.18.28-.06.28,0,.57.18.65.45.4.57.07.54-.32.37-.07,1.59-.1.49.09.07.12,0,.2,0,.39.07.11.17-.06.19-.1.12,0,.25.21.14.24.17.67.38-.09.2.33.05.54-.07.51-.14.25-.41.37-.15.16,0,.26.1.2,0,.17-.21.18-.2-.38-.34-.43-.4-.33-.4-.14-.42.25-.08.57.13.65.16.44,1,1.21.16.46.17.25.41.11.82,0,.86.2.66.41.52.62.46.85.26,1,0,3,.16.73L309,373.2l.15.24.68.71.71,1.12.26.3.71.65.42.69,0,.61-.45,1.24.1.47.42.44.35.33.77,1.26.31.84.4.57.4,1.38.42,0,.16-.65.49.32.47.78.43.48.87.26.64.09.1.11.07.18,0,.22.1.14.24.07,1.77.37.8.12,1.27-.24.79-.18.73-.06.38.25.33.1,1.41-.17,1,.13.84.35.75.51,2.41,2.24.77.39,3.63.8.75.32.67.53,1.53,1.58.14.24.33.75.16.28.3.25.83.32.33.28.18.54-.25.22-.45.05h-.38l-.42,0-.34.15-.2.29,0,.47.42.45,1.58.7h0l.33-.64.11-.14h.09l.42-.18h.22l1.33-.13h.33l1,.26,1,0,.27-.1.88-.51Z"/><polygon id="West_Azerbaijan" data-name="West Azerbaijan" class="cls-2" points="179.81 95.79 179.86 95.86 180.15 96.03 180.23 96.08 180.67 96.17 181.14 96.18 181.08 96.3 181 96.38 181.43 96.69 181.67 97.26 182.28 99.8 182.53 100.33 182.96 100.71 182.79 101.03 182.87 101.22 183.39 101.6 183.49 101.62 183.72 101.61 183.87 101.66 183.95 101.76 183.99 101.88 184.06 101.97 184.79 102.47 184.8 102.48 184.91 102.61 184.98 102.8 185.14 103.07 185.35 103.32 185.54 103.43 185.7 103.68 186.08 104.52 186.2 104.8 186.37 105.05 186.51 105.33 186.73 106.65 186.86 107.05 187.39 106.88 189.52 107.58 189.57 107.53 189.71 107.44 189.9 107.36 190.09 107.39 190.15 107.55 190.09 107.8 190.09 108.03 190.29 108.12 190.57 108.18 190.85 108.35 190.96 108.63 190.79 109.02 190.92 109.29 191.1 109.42 191.29 109.53 191.48 109.74 191.56 109.95 191.72 110.51 191.83 110.73 192.02 110.88 192.51 111.1 192.61 111.27 192.56 111.54 192.48 111.76 192.42 111.98 192.46 112.27 192.69 112.55 193.12 112.84 193.59 113.07 193.83 113.13 193.7 113.26 191.45 115.67 191 116.76 190.41 119.54 190.69 121.03 191.21 122.41 191.2 123.7 190.44 125.09 186.94 128.72 185.79 130.67 185.57 131.79 185.84 132.66 187.13 134.42 187.27 134.42 187.27 134.78 187.39 134.97 187.55 135.11 187.69 135.32 187.81 135.78 187.84 136.06 187.76 136.19 187.7 136.32 187.69 137.18 188.4 144.16 188.81 144.71 188.9 144.92 188.93 145.02 189.09 146.57 189 146.71 188.81 146.82 188.62 146.98 188.53 147.27 188.69 147.67 188.97 148.19 189.1 148.66 190.47 150.3 190.97 151.48 190.74 154.67 191.02 156.05 191.79 157.22 197.75 161.13 200.4 161.6 202.58 161.64 205.41 164.21 205.75 164.9 208.29 166.33 209.16 167.15 210.11 167.55 210.71 167.13 211.05 166.6 211.11 166.38 211.41 165.66 212.09 164.82 213.31 164.03 214.31 163.81 214.81 163.87 215.37 163.33 216.23 162.77 217.17 162.92 217.82 163.58 218.63 164.08 219.67 164.31 220.31 164.87 220.4 165.41 220.13 165.79 220.94 168.15 220.92 169.85 221.66 170.92 223.65 171.19 228.49 170.63 231.31 176.96 230.82 177.12 230.21 177.48 230.13 177.98 230.27 178.4 230.16 178.8 229.81 179.5 228.95 180.5 227.41 181.18 225.1 180.97 222.98 180.39 222.2 179.84 221.85 179.46 221.44 179.12 221.16 178.73 221 178.43 220.76 178.22 210.22 179.21 205.09 178.47 203.3 179.18 202.85 179.76 202.82 180.98 201.84 182.48 198.52 183.55 197.91 184.22 197.67 184.63 197.22 185.09 196.94 186.32 195.81 187.61 195.47 188.43 194.67 189.23 193.98 189.65 193.97 189.66 193.97 189.66 193.52 189.5 192.99 189.51 192.31 189.84 191.95 189.94 191.94 189.95 191.94 189.95 191.94 189.95 191.93 189.95 191.53 190.23 191.08 190.38 190.64 190.32 190.28 189.95 190.28 189.95 190.28 189.95 190.28 189.95 190.28 189.94 190.14 189.54 190.26 189.02 190.51 188.5 190.76 188.1 190.85 187.59 190.59 187.08 189.96 186.26 189.85 185.73 189.9 184.56 189.81 184.07 189.51 183.78 189.13 183.48 189.02 183.18 189.51 182.86 189.13 182.37 188.99 181.93 188.93 180.84 188.84 180.25 188.62 179.61 188.26 179.16 187.74 179.12 186.6 179.58 186 179.63 185.45 179.37 185.22 179.1 185.14 178.87 185.11 178.62 185.01 178.29 184.85 178.04 184.67 177.87 184.54 177.67 184.52 177.31 184.26 177.02 183.94 176.74 183.87 176.68 183.57 176.3 183.61 175.89 183.7 175.83 183.95 175.73 184.01 175.68 184.03 175.15 184.25 174.28 184.65 173.36 184.68 172.89 184.46 172.34 183.97 171.42 183.67 171.01 183.32 170.83 183.06 170.82 182.82 170.74 182.61 170.59 182.42 170.37 182.17 170.14 181.87 170.09 181.24 170.13 180.71 170.01 180.3 169.73 180.14 169.29 180.36 168.66 181.09 167.77 181.37 167.31 181.48 166.7 181.38 166.13 181.19 165.71 181.08 165.26 181.19 164.58 181.41 164.3 181.45 164.02 181.31 163.79 180.87 163.56 180.64 163.3 180.49 163.22 180.3 163.23 179.89 163.36 179.7 163.31 179.61 163.19 179.51 162.8 179.43 162.63 179.28 162.52 179.13 162.48 178.98 162.41 178.86 162.24 178.7 161.79 178.7 161.54 178.97 160.8 179.1 160.31 178.97 159.87 178.78 159.44 178.72 158.92 178.86 158.46 179.11 158.25 179.4 158.08 179.63 157.77 179.7 156.94 179.24 156.4 178.06 155.64 177.89 155.29 177.77 154.93 177.59 154.7 176.84 154.81 176.65 154.59 176.37 153.86 176.05 153.62 175.29 153.55 175.02 153.39 174.89 152.97 175.16 152.21 175.08 151.77 175.08 151.77 174.97 151.25 175.01 150.61 175.15 149.97 175.33 149.46 175.25 149.01 174.79 148.67 174.38 148.2 174.47 147.42 174.64 147.19 175.34 146.62 175.55 146.29 175.51 146.04 174.76 145.13 174.25 144.68 173.68 144.42 173.12 144.49 172.86 144.63 172.54 144.75 172.25 144.72 172.1 144.43 172.11 144.27 172.2 143.86 172.18 143.73 172.03 143.61 171.89 143.64 171.75 143.69 171.6 143.64 171.37 143.34 171.25 143.03 171.18 142.73 171.06 142.49 170.84 142.33 170.1 141.98 169.86 141.9 168.54 142.06 167.83 141.94 167.47 141.38 167.53 141.18 167.56 141.09 167.77 140.82 167.95 140.55 167.93 140.22 167.83 139.85 167.87 139.53 167.99 139.21 168.16 138.88 168.16 138.88 168.16 138.87 168.16 138.87 168.35 138.5 168.85 137.94 169.03 137.54 169.19 137 169.38 136.67 169.65 136.46 170.04 136.27 170.16 136.11 169.99 135.62 170.02 135.39 170.19 135.25 170.55 135.09 170.7 134.89 170.84 134.51 170.96 134 171.03 133.5 170.94 132.25 171.52 131.6 172.26 131.02 172.71 130.35 172.71 129.94 172.55 129.53 172.3 129.18 172.01 128.94 171.69 128.81 171.43 128.87 170.76 129.26 169.74 129.07 169.44 128.93 169.25 128.8 169.19 128.57 169.26 128.15 169.27 127.91 169.21 127.25 169.21 126.94 169.47 125.89 169.5 125.44 169.31 124.12 169.4 123.08 169.41 122.54 169.26 122.11 169.11 121.94 168.96 121.84 168.59 121.72 168.33 121.59 168.4 121.43 168.57 121.25 168.66 121.06 168.56 120.58 168.46 120.27 168.42 119.94 168.5 119.42 169.06 117.53 168.96 116.76 167.88 116.24 167.55 115.92 167.27 115.52 167.07 114.94 166.98 114.74 166.91 114.54 166.93 114.32 166.91 114.08 166.76 113.92 166.57 113.77 166.45 113.58 166.36 113.18 166.3 113 166.19 112.82 166.19 112.82 166.48 112.33 166.81 112.05 167 111.74 166.81 110.7 166.92 110.29 167.32 109.49 167.16 108.84 166.37 108.28 165.46 107.81 164.93 107.4 164.91 107.17 165.05 106.69 165.03 106.46 164.79 105.94 164.72 105.72 164.71 105.48 164.76 105.31 164.76 105.11 164.53 104.59 164.41 104.03 164.32 103.78 164.31 103.77 163.78 103.13 163.65 102.81 163.88 102.5 164.29 102.23 164.6 102.12 164.92 102.11 165.37 102.17 165.84 102.12 166.95 101.83 167.44 101.88 168.85 102.58 169.37 102.63 169.81 102.52 170.87 102.03 171.26 101.75 171.6 101.22 171.61 100.74 171.54 100.25 171.64 99.66 171.64 99.66 171.65 99.66 171.85 99.34 171.86 99.03 171.79 98.69 171.75 98.31 171.79 97.88 171.89 97.52 172.56 96.16 172.68 95.82 172.69 95.72 172.74 95.4 172.63 94.53 172.72 94.23 174.89 92.45 175.39 92.3 175.71 92.52 176.25 93.36 176.53 93.68 177.75 94.25 178.15 94.58 179.81 95.79"/><polygon id="East_Azerbaijan" data-name="East Azerbaijan" class="cls-2" points="221.27 114.96 220.33 114.19 219.91 114.21 219.85 114.61 219.84 115.38 219.7 116.1 219.42 116.35 218.34 116.09 217.58 116.17 217.37 116.54 216.82 116.86 216 117.95 215.68 119.58 216.26 121.01 217.3 121.58 218.69 121.08 220.09 120.32 221.43 119.94 224.48 120.81 225.34 120.12 226.11 119.06 227.38 118.1 227.64 117.77 227.33 117.65 227.05 117.23 229.39 113.14 230.93 112.11 231.76 112.18 233.13 111.35 234.45 110.17 235.25 110.47 234.97 113.46 235.29 113.92 235.34 115.89 236.52 118.84 236.31 120.59 235.55 121.61 235.57 122.33 236.64 122.94 237.02 124.22 236.03 124.9 234.57 124.67 233.18 125.08 232.32 126 230.69 127.2 230.05 128.41 229.53 129.09 229.11 130.03 229.01 131.37 229.26 132.18 230.24 131.79 231.54 131.63 232.19 132.26 232.47 132.47 233.06 132.57 237.65 131.9 239.07 132.61 239.68 134.51 239.8 136.58 240.84 139.13 242.44 141.33 243.81 142.59 244.02 143.06 243.81 143.77 243.35 144.75 243.17 147.1 243.78 149.92 245.77 151.15 245.9 151.08 246.36 151.17 247.86 151.95 248.4 152.43 248.56 154.28 249.09 155.54 250.34 156.37 250.78 156.82 251.7 157.57 251.65 157.71 251.55 158.1 251.7 158.1 251.88 157.88 252.19 157.77 252.89 157.73 253.18 157.89 253.47 158.47 253.65 158.45 253.94 158.6 254.22 158.7 253.98 158.84 253.27 159.41 251.75 160.01 246.87 159.5 245.54 159.72 243.61 159.42 237.19 160.17 236.47 160.47 235.77 160.89 234.65 162.1 233.31 162.75 232.7 163.19 231.84 164.62 228.75 167.77 228.36 168.57 228.37 169.8 228.49 170.63 223.65 171.19 221.66 170.92 220.92 169.85 220.94 168.15 220.13 165.79 220.4 165.41 220.31 164.87 219.67 164.31 218.63 164.08 217.82 163.58 217.17 162.92 216.23 162.77 215.37 163.33 214.81 163.87 214.31 163.81 213.31 164.03 212.09 164.82 211.41 165.66 211.11 166.38 211.05 166.6 210.71 167.13 210.11 167.55 209.16 167.15 208.29 166.33 205.75 164.9 205.41 164.21 202.58 161.64 200.4 161.6 197.75 161.13 191.79 157.22 191.02 156.05 190.74 154.67 190.97 151.48 190.47 150.3 189.1 148.66 188.97 148.19 188.69 147.67 188.53 147.27 188.62 146.98 188.81 146.82 189 146.71 189.09 146.57 188.93 145.02 188.9 144.92 188.81 144.71 188.4 144.16 187.69 137.18 187.7 136.32 187.76 136.19 187.84 136.06 187.81 135.78 187.69 135.32 187.55 135.11 187.39 134.97 187.27 134.78 187.27 134.42 187.13 134.42 185.84 132.66 185.57 131.79 185.79 130.67 186.94 128.72 190.44 125.09 191.2 123.7 191.21 122.41 190.69 121.03 190.41 119.54 191 116.76 191.45 115.67 193.7 113.26 193.83 113.13 194.15 113.22 194.57 113.46 194.67 113.48 194.82 113.52 195.39 113.54 196.55 113.83 198.37 113.84 199.41 114.25 199.88 114.44 204.18 115.35 205.53 115.96 206.71 116.26 206.91 116.23 208.27 116.05 208.63 115.88 209.69 115.11 210.08 114.92 210.35 114.85 211.14 114.82 211.64 114.66 211.85 114.63 212.13 114.69 214.26 115.64 214.62 115.75 214.99 115.72 215.43 115.55 215.76 115.34 216.08 115.08 216.36 114.76 216.59 114.39 217.17 113.2 217.44 112.84 217.81 112.53 219 111.92 219.33 111.6 219.67 110.8 219.92 110.42 220.08 110.28 220.42 110.1 220.58 109.97 220.69 109.81 221.22 108.89 221.5 108.57 221.81 108.31 221.81 108.31 222.15 108.15 222.47 108.14 223.04 108.4 223.34 108.48 223.59 108.44 224.81 107.74 224.97 108.26 225.04 108.31 225.07 108.59 225.35 108.91 225.98 109.21 226.28 109.75 226.66 111.35 226.58 111.87 226.44 112.35 226.02 112.92 224.25 114.14 222.99 114.31 222.17 114.79 221.27 114.96"/><polygon id="Ardabil" class="cls-2" points="244.07 94 244.35 94.07 244.74 94.35 245.99 95.52 249.42 99.65 250.82 100.94 251.39 101.73 251.84 102.69 251.63 102.75 251.1 102.92 250.03 103.65 248.75 103.91 248.06 104.27 247.47 104.83 247.1 105.58 247.06 106.48 247.33 107.19 247.83 107.9 248.99 109.03 250.16 109.51 250.46 109.81 251.08 111.13 251.19 111.47 251.18 111.83 251.08 112.19 251.08 112.2 250.92 112.54 250.74 112.81 250.73 112.81 250.73 112.82 250.73 112.82 250.73 112.82 249.89 113.34 246.12 114.01 246.06 114.18 246.06 114.38 246 114.55 244.93 115.21 244.74 115.51 244.79 116.59 245.19 117.33 246.52 118.4 249.22 119.74 249.48 119.95 249.53 120.17 249.63 120.55 249.54 121.06 249.58 121.5 250.57 122.3 250.89 122.77 251.26 123.12 251.89 123.14 252.92 122.65 253.4 122.65 253.63 123.22 253.78 123.91 254.04 124.26 254.37 124.56 254.7 125.09 255.04 125.46 255.35 125.89 255.85 126.54 256.12 126.87 256.68 127.81 257.33 128.44 257.43 128.45 257.55 128.72 258.2 129.3 258.63 129.85 258.74 130.34 259.23 130.54 260 130.72 260.32 131.05 260.14 131.53 255.53 137.01 255.1 138.01 254.93 139.38 254.28 140.4 254.23 141.81 256.11 147.01 259.49 152.35 260.62 153.51 261.92 154.54 262.61 155.41 262.62 156.15 262.54 157.27 262.71 158.61 262.93 159.24 261.56 158.51 260.84 158.72 260.04 159.28 259.3 159.18 258.72 158.85 258.33 159.01 258.08 159.45 258.08 159.88 257.8 160.34 257.17 160.47 255.65 158.84 254.81 158.54 254.22 158.7 253.94 158.6 253.65 158.45 253.47 158.47 253.18 157.89 252.89 157.73 252.19 157.77 251.88 157.88 251.7 158.1 251.55 158.1 251.65 157.71 251.7 157.57 250.78 156.82 250.34 156.37 249.09 155.54 248.56 154.28 248.4 152.43 247.86 151.95 246.36 151.17 245.9 151.08 245.77 151.15 243.78 149.92 243.17 147.1 243.35 144.75 243.81 143.77 244.02 143.06 243.81 142.59 242.44 141.33 240.84 139.13 239.8 136.58 239.68 134.51 239.07 132.61 237.65 131.9 233.06 132.57 232.47 132.47 232.19 132.26 231.54 131.63 230.24 131.79 229.26 132.18 229.01 131.37 229.11 130.03 229.53 129.09 230.05 128.41 230.69 127.2 232.32 126 233.18 125.08 234.57 124.67 236.03 124.9 237.02 124.22 236.64 122.94 235.57 122.33 235.55 121.61 236.31 120.59 236.52 118.84 235.34 115.89 235.29 113.92 234.97 113.46 235.25 110.47 234.45 110.17 233.13 111.35 231.76 112.18 230.93 112.11 229.39 113.14 227.05 117.23 227.33 117.65 227.64 117.77 227.38 118.1 226.11 119.06 225.34 120.12 224.48 120.81 221.43 119.94 220.09 120.32 218.69 121.08 217.3 121.58 216.26 121.01 215.68 119.58 216 117.95 216.82 116.86 217.37 116.54 217.58 116.17 218.34 116.09 219.42 116.35 219.7 116.1 219.84 115.38 219.85 114.61 219.91 114.21 220.33 114.19 221.27 114.96 222.17 114.79 222.99 114.31 224.25 114.14 226.02 112.92 226.44 112.35 226.58 111.87 226.66 111.35 226.28 109.75 225.98 109.21 225.35 108.91 225.07 108.59 225.04 108.31 224.97 108.26 224.81 107.74 224.95 107.67 225.16 107.41 225.27 107.22 225.61 106.22 226.35 105.03 226.42 104.77 226.62 104.55 227.6 103.95 229.63 103.15 229.87 103.02 230.48 102.67 231.15 101.97 231.15 101.97 232.17 100.66 232.83 100.1 233.69 99.63 235.12 99.14 235.57 99.09 235.84 98.91 236.91 97.81 237.28 97.6 239.74 96.21 240.61 95.32 240.93 94.99 241.32 94.72 241.81 94.58 243.36 94.61 243.61 94.55 243.82 94.36 244.06 94 244.07 94"/><polygon id="Alborz" class="cls-2" points="302.06 181.75 305.43 182.42 306.73 182.94 307.1 183.47 307.87 184.19 308.73 184.56 312.07 185.3 313.39 186.87 313.33 187.93 313.33 189.36 312.18 190.07 310.53 189.87 308.88 190.48 307.65 191.9 307.57 193.52 307.32 194.74 305.51 194.84 304.94 196.36 303.87 197.68 302.55 198.49 302.01 199.74 301.07 199.82 300.5 200.98 299.93 201.1 299.78 200.26 299.79 198.87 299 197.94 297.85 197.93 297.59 198.6 298.38 199.7 298.38 200.12 298.17 200.49 297.66 200.19 296.48 199.13 294.48 198.54 292.42 198.41 291.55 198.2 291.1 197.48 290.59 196.32 290.42 195.54 290.67 194.56 291.79 193.48 295.92 191.46 296.62 190.79 296.87 189.86 297.84 187.82 298.49 185.64 297.54 184.83 296.1 184.4 295.35 183.75 294.3 182.31 294.89 181.42 297.21 181.23 302.06 181.75"/></g></svg>